<svg xmlns:inkscape="http://www.inkscape.org/namespaces/inkscape" xmlns:sodipodi="http://sodipodi.sourceforge.net/DTD/sodipodi-0.dtd" xmlns="http://www.w3.org/2000/svg" xmlns:svg="http://www.w3.org/2000/svg" xmlns:rdf="http://www.w3.org/1999/02/22-rdf-syntax-ns#" xmlns:cc="http://creativecommons.org/ns#" xmlns:dc="http://purl.org/dc/elements/1.1/" sodipodi:docname="Typography_Canvas.svg" version="1.1" id="svg1" xml:space="preserve" viewBox="286.15 2.43 417.41 156.83"><sodipodi:namedview id="base" pagecolor="#ffffff" bordercolor="#000000" borderopacity="0.3" inkscape:pageopacity="0.0" inkscape:pageshadow="2" inkscape:zoom="0.5" inkscape:cx="500" inkscape:cy="500" inkscape:document-units="px" inkscape:current-layer="layer1" showgrid="false" showguides="true" inkscape:window-width="1280" inkscape:window-height="737" inkscape:window-x="0" inkscape:window-y="0" inkscape:window-maximized="1" showborder="true" inkscape:showpageshadow="false" inkscape:pagecheckerboard="0" inkscape:deskcolor="#505050"><inkscape:page x="0" y="0" width="1000" height="1000" id="page2" margin="0" bleed="0"/></sodipodi:namedview><defs id="defs4"><linearGradient id="swatch4" inkscape:swatch="solid"><stop style="stop-color:#ffffff;stop-opacity:1;" offset="0" id="stop4"/></linearGradient></defs><metadata id="metadata7"><rdf:RDF><cc:Work rdf:about=""><dc:format>image/svg+xml</dc:format><dc:type rdf:resource="http://purl.org/dc/dcmitype/StillImage"/><dc:title/></cc:Work></rdf:RDF></metadata><g id="g331823_00000145052455138854409080000011813451490543582627_" transform="matrix(0.38127517,0,0,0.30168805,238.74794,-398.7591)" inkscape:label="beret">
		<path id="path327987_00000075162756967800936470000012259112197172127675_" style="fill:#1d1d1d" d="m 321.309,1811.391 5.665,38.244 c 0,0 406.521,-35.411 726.639,-35.411 5.666,-31.162 16.998,-65.157 16.998,-65.157 0,0 -613.323,-45.327 -749.302,62.324 z"/>
		<path id="path324089_00000137819174762876981670000002727541852150492318_" style="fill:#323232" d="m 430.375,1802.892 c 0,0 351.279,-39.66 458.93,-28.329 107.65,11.331 249.295,22.663 317.284,-107.65 67.99,-130.313 -158.642,-226.632 -266.292,-243.629 -107.65,-16.998 -305.953,-11.332 -430.601,28.329 -124.647,39.661 -379.608,192.637 -385.274,322.95 -5.666,130.313 226.632,56.658 305.953,28.329 z"/>
		
			<path id="path328806_00000043455245706424306880000009266740162296380082_" style="opacity:0.25;fill:#ffffff;enable-background:new" d="m 628.678,1462.944 c 0,0 -311.619,67.99 -402.271,203.969 -90.652,135.979 138.812,25.496 203.969,-11.331 65.157,-36.828 314.452,-48.159 388.107,-107.65 73.655,-59.492 -82.155,-107.651 -189.805,-84.988 z"/>
		<path id="path328874_00000044137890658000724560000010369480123167527830_" style="opacity:0.25;enable-background:new" d="m 1180.863,1537.324 c -40.757,112.844 -273.345,135.563 -470.027,138.083 -220.966,2.833 -320.121,65.164 -450.434,116.156 -64.468,25.227 -108.112,6.065 -135.782,-19.725 -0.063,0.908 -0.158,1.817 -0.198,2.723 -5.666,130.313 226.636,56.659 305.957,28.33 0,0 351.273,-39.661 458.923,-28.33 107.65,11.331 249.294,22.663 317.284,-107.65 25.432,-48.745 9.644,-92.728 -25.723,-129.587 z"/>
		<path id="path329279_00000153707329187575533620000010148805295668834209_" style="fill:#323232" d="m 625.845,1431.783 c 0,0 -4.249,-63.74 12.748,-82.154 16.997,-18.413 33.995,-19.831 33.995,-19.831 l 11.331,14.165 c 0,0 -18.413,0 -26.912,18.414 -8.499,18.413 2.833,66.573 2.833,66.573 z"/>
	</g></svg>