<svg xmlns:inkscape="http://www.inkscape.org/namespaces/inkscape" xmlns:sodipodi="http://sodipodi.sourceforge.net/DTD/sodipodi-0.dtd" xmlns="http://www.w3.org/2000/svg" xmlns:svg="http://www.w3.org/2000/svg" xmlns:rdf="http://www.w3.org/1999/02/22-rdf-syntax-ns#" xmlns:cc="http://creativecommons.org/ns#" xmlns:dc="http://purl.org/dc/elements/1.1/" sodipodi:docname="Typography_Canvas.svg" version="1.1" id="svg1" xml:space="preserve" inkscape:export-filename="cowboy.svg" inkscape:export-xdpi="96" inkscape:export-ydpi="96" viewBox="284.77 7.3 447.66 201.21"><sodipodi:namedview id="base" pagecolor="#ffffff" bordercolor="#000000" borderopacity="0.3" inkscape:pageopacity="0.0" inkscape:pageshadow="2" inkscape:zoom="0.5" inkscape:cx="500" inkscape:cy="500" inkscape:document-units="px" inkscape:current-layer="layer1" showgrid="false" showguides="true" inkscape:window-width="1280" inkscape:window-height="737" inkscape:window-x="0" inkscape:window-y="0" inkscape:window-maximized="1" showborder="true" inkscape:showpageshadow="false" inkscape:pagecheckerboard="0" inkscape:deskcolor="#505050"><inkscape:page x="0" y="0" width="1000" height="1000" id="page2" margin="0" bleed="0"/></sodipodi:namedview><defs id="defs4"><linearGradient id="swatch4" inkscape:swatch="solid"><stop style="stop-color:#ffffff;stop-opacity:1;" offset="0" id="stop4"/></linearGradient></defs><metadata id="metadata7"><rdf:RDF><cc:Work rdf:about=""><dc:format>image/svg+xml</dc:format><dc:type rdf:resource="http://purl.org/dc/dcmitype/StillImage"/><dc:title/></cc:Work></rdf:RDF></metadata><g id="g256839_00000132789991876103878500000014553552908683699854_" transform="matrix(0.82805366,0,0,0.61000574,-799.33357,-233.20031)" inkscape:label="bowler">
		<path id="path234024_00000156560827028068999190000008798825412610570672_" style="fill:#a26f29" d="m 1309.229,619.075 c -1.838,-48.838 173.353,-59.159 302.477,-54.884 114.811,3.801 242.807,28.832 237.997,58.03 -22.357,44.752 -161.483,88.504 -215.829,68.935 -54.345,-19.568 -280.486,11.017 -324.645,-72.081 z"/>
		<path id="path243676_00000099652566104931899430000013384372419996668291_" style="fill:#d99b30" d="m 1375.912,666.974 c 0,-12.092 8.061,-179.364 72.552,-231.763 64.49,-52.399 181.379,-52.399 243.854,-12.092 62.475,40.306 80.613,264.008 80.613,264.008 0,0 -261.992,32.245 -397.019,-20.153 z"/>
		<path id="path251948_00000090979667304984962790000004451014203035557535_" style="fill:#bc842c" d="m 1732.442,484.426 c -29.126,50.589 -128.547,132.866 -217.47,150.301 -72.996,14.313 -116.385,-2.854 -135.477,-14.024 -2.826,24.648 -3.58,42.609 -3.58,46.273 135.027,52.398 397.017,20.154 397.017,20.154 0,0 -9.953,-122.675 -40.49,-202.704 z"/>
		<path id="path245819_00000167358566651219456120000012234867547632606340_" style="fill:#f7bc46" d="m 1561.322,404.981 c -50.383,8.062 -98.751,26.199 -122.935,60.46 -24.184,34.261 -46.353,114.874 -32.245,130.996 14.107,16.123 135.027,-90.69 171.302,-128.981 36.277,-38.291 24.185,-64.49 -16.122,-62.475 z"/>
		<path id="path231292_00000131359729100670795440000011043878789099862957_" style="fill:#d99b30" d="m 1309.229,619.075 c 0,0 63.388,26.942 151.806,34.791 88.418,7.849 314.099,13.552 388.668,-31.644 1.595,56.551 -11.702,84.218 -56.519,94.387 -44.817,10.169 -246.51,9.537 -355.063,0.819 -108.553,-8.718 -127.819,-29.721 -128.892,-98.353 z"/>
		<path id="path242388_00000085245898180225820560000001561276352359600300_" style="fill:#221816" d="m 1309.232,619.078 c 0.095,6.077 0.337,11.763 0.767,17.119 33.52,15.162 103.033,36.287 233.186,38.84 161.216,3.161 260.427,-14.753 306.435,-34.294 0.242,-5.802 0.267,-11.958 0.083,-18.52 -74.569,45.195 -300.25,39.495 -388.668,31.645 -88.418,-7.849 -151.803,-34.789 -151.803,-34.79 z"/>
		<path id="path255463_00000024002641870525447390000005892203037980697522_" style="fill:#f7bc46" d="m 1498.847,685.111 c 0,0 -116.889,-4.03 -159.211,-30.229 18.138,42.322 124.95,52.398 159.211,30.229 z"/>
	</g></svg>