<?xml version="1.0" encoding="utf-8"?>
<!-- Generator: Adobe Illustrator 27.5.0, SVG Export Plug-In . SVG Version: 6.00 Build 0)  -->
<svg version="1.1" id="Layer_1" xmlns="http://www.w3.org/2000/svg" xmlns:xlink="http://www.w3.org/1999/xlink" x="0px" y="0px"
	 viewBox="0 0 393.709 236.266" style="enable-background:new 0 0 393.709 236.266;" xml:space="preserve">
<g>
	<g>
		<g>
			<rect x="17.245" y="97.654" style="fill:#AB592B;" width="362.969" height="134.86"/>
			<path style="fill:#712013;" d="M380.214,232.722H17.246c-0.115,0-0.208-0.093-0.208-0.208V97.654
				c0-0.115,0.093-0.208,0.208-0.208h362.969c0.115,0,0.208,0.093,0.208,0.208v134.86
				C380.423,232.629,380.329,232.722,380.214,232.722z M17.454,232.306h362.552V97.863H17.454V232.306z"/>
		</g>
		<g>
			<path style="fill:#712013;" d="M103.468,228.1H25.448c-0.575,0-1.041-0.466-1.041-1.041V109.133c0-0.575,0.466-1.041,1.041-1.041
				h78.021c0.575,0,1.041,0.466,1.041,1.041v117.926C104.509,227.634,104.043,228.1,103.468,228.1z M26.489,226.018h75.938V110.174
				H26.489V226.018z"/>
			<path style="fill:#712013;" d="M193.153,228.1h-78.02c-0.575,0-1.041-0.466-1.041-1.041V109.133c0-0.575,0.466-1.041,1.041-1.041
				h78.02c0.575,0,1.041,0.466,1.041,1.041v117.926C194.194,227.634,193.728,228.1,193.153,228.1z M116.173,226.018h75.938V110.174
				h-75.938V226.018z"/>
			<path style="fill:#712013;" d="M282.837,228.1h-78.02c-0.575,0-1.041-0.466-1.041-1.041V109.133c0-0.575,0.466-1.041,1.041-1.041
				h78.02c0.575,0,1.041,0.466,1.041,1.041v117.926C283.878,227.634,283.412,228.1,282.837,228.1z M205.858,226.018h75.938V110.174
				h-75.938V226.018z"/>
			<path style="fill:#712013;" d="M372.522,228.1h-78.02c-0.575,0-1.041-0.466-1.041-1.041V109.133c0-0.575,0.466-1.041,1.041-1.041
				h78.02c0.575,0,1.041,0.466,1.041,1.041v117.926C373.563,227.634,373.097,228.1,372.522,228.1z M295.543,226.018h75.938V110.174
				h-75.938V226.018z"/>
		</g>
		<rect x="17.245" y="97.654" style="fill:#BA6132;" width="362.969" height="5.92"/>
		<g>
			<polygon style="fill:#C7B19C;" points="378.292,73.783 341.512,73.783 52.197,73.783 15.417,73.783 6.114,92.199 52.197,92.199 
				52.197,92.199 341.512,92.199 341.512,92.199 387.595,92.199 			"/>
			<path style="fill:#5C5D60;" d="M387.595,92.407H6.114c-0.072,0-0.139-0.038-0.177-0.099c-0.038-0.061-0.041-0.138-0.009-0.203
				l9.303-18.416c0.035-0.07,0.107-0.114,0.186-0.114h362.875c0.078,0,0.15,0.044,0.186,0.114l9.303,18.416
				c0.033,0.065,0.03,0.142-0.008,0.203C387.735,92.369,387.668,92.407,387.595,92.407z M6.452,91.99h380.804l-9.093-17.999H15.545
				L6.452,91.99z"/>
		</g>
		<g>
			<rect x="6.114" y="92.199" style="fill:#BA6132;" width="381.482" height="8.151"/>
			<path style="fill:#712013;" d="M387.595,100.558H6.114c-0.115,0-0.208-0.093-0.208-0.208v-8.151c0-0.115,0.093-0.208,0.208-0.208
				h381.482c0.115,0,0.208,0.093,0.208,0.208v8.151C387.804,100.465,387.711,100.558,387.595,100.558z M6.322,100.142h381.065
				v-7.735H6.322V100.142z"/>
		</g>
		<rect x="6.114" y="92.199" style="fill:#BA6132;" width="381.482" height="1.714"/>
	</g>
	<g>
		<g>
			<g>
				<g>
					<polygon style="fill:#514A40;" points="96.196,41.916 94.445,43.759 34.461,41.916 25.544,5.595 27.294,3.752 89.028,3.752 
											"/>
					<path style="fill:#231F20;" d="M94.445,43.967c-0.002,0-0.004,0-0.006,0l-59.984-1.842c-0.093-0.003-0.174-0.068-0.196-0.159
						L25.342,5.644c-0.017-0.069,0.002-0.142,0.051-0.193l1.75-1.842c0.039-0.042,0.094-0.065,0.151-0.065h61.734
						c0.1,0,0.186,0.071,0.205,0.17L96.4,41.878c0.012,0.066-0.007,0.133-0.054,0.182l-1.75,1.842
						C94.557,43.944,94.502,43.967,94.445,43.967z M34.626,41.713l59.732,1.835l1.613-1.698L88.855,3.961H27.383l-1.61,1.695
						L34.626,41.713z"/>
				</g>
				<g>
					<polygon style="fill:#302B23;" points="96.196,41.916 94.445,43.759 34.461,41.916 87.278,5.595 89.028,3.752 					"/>
					<path style="fill:#231F20;" d="M94.445,43.967c-0.002,0-0.004,0-0.006,0l-59.984-1.842c-0.09-0.003-0.168-0.063-0.193-0.15
						c-0.025-0.086,0.008-0.179,0.082-0.23L87.142,5.436l1.736-1.827c0.054-0.057,0.135-0.078,0.21-0.056
						c0.075,0.022,0.131,0.084,0.146,0.161L96.4,41.878c0.012,0.066-0.007,0.133-0.054,0.182l-1.75,1.842
						C94.557,43.944,94.502,43.967,94.445,43.967z M35.103,41.728l59.255,1.82l1.613-1.698L88.899,4.191l-1.47,1.547
						c-0.01,0.011-0.021,0.02-0.033,0.028L35.103,41.728z"/>
				</g>
				<g>
					<polygon style="fill:#433D34;" points="94.445,43.759 32.711,43.759 25.544,5.595 87.278,5.595 					"/>
					<path style="fill:#231F20;" d="M94.445,43.967H32.711c-0.1,0-0.186-0.071-0.205-0.17L25.339,5.633
						c-0.012-0.061,0.005-0.124,0.044-0.171c0.04-0.048,0.098-0.075,0.16-0.075h61.734c0.1,0,0.186,0.071,0.205,0.17L94.65,43.72
						c0.012,0.061-0.005,0.124-0.044,0.171C94.566,43.939,94.507,43.967,94.445,43.967z M32.884,43.55h61.31L87.105,5.803h-61.31
						L32.884,43.55z"/>
				</g>
			</g>
			<g>
				<g>
					<polygon style="fill:#514A40;" points="79.564,38.188 78.499,39.309 42.015,38.188 36.591,16.096 37.656,14.976 75.204,14.976 
											"/>
					<path style="fill:#231F20;" d="M78.499,39.517c-0.002,0-0.004,0-0.006,0l-36.484-1.121c-0.094-0.003-0.174-0.068-0.196-0.159
						l-5.424-22.092c-0.017-0.069,0.002-0.142,0.051-0.193l1.065-1.121c0.039-0.042,0.094-0.065,0.151-0.065h37.549
						c0.1,0,0.186,0.071,0.205,0.17l4.359,23.213c0.012,0.066-0.007,0.133-0.054,0.182l-1.064,1.121
						C78.611,39.494,78.556,39.517,78.499,39.517z M42.18,37.985l36.233,1.113l0.927-0.976l-4.308-22.938H37.745l-0.925,0.973
						L42.18,37.985z"/>
				</g>
				<g>
					<polygon style="fill:#302B23;" points="79.564,38.188 78.499,39.309 42.015,38.188 74.14,16.096 75.204,14.976 					"/>
					<path style="fill:#231F20;" d="M78.499,39.517c-0.002,0-0.004,0-0.006,0l-36.484-1.121c-0.09-0.003-0.168-0.063-0.193-0.149
						c-0.025-0.086,0.007-0.179,0.082-0.23l32.106-22.08l1.05-1.105c0.054-0.057,0.135-0.078,0.21-0.056
						c0.075,0.022,0.131,0.084,0.146,0.161l4.359,23.213c0.012,0.066-0.007,0.133-0.054,0.182l-1.064,1.121
						C78.611,39.494,78.556,39.517,78.499,39.517z M42.657,38l35.755,1.098l0.927-0.976l-4.265-22.708l-0.784,0.825
						c-0.01,0.011-0.021,0.02-0.033,0.028L42.657,38z"/>
				</g>
				<g>
					<polygon style="fill:#514A40;" points="78.499,39.309 40.951,39.309 36.591,16.096 74.14,16.096 					"/>
					<path style="fill:#231F20;" d="M78.499,39.517H40.951c-0.1,0-0.186-0.071-0.204-0.17l-4.36-23.212
						c-0.012-0.061,0.005-0.124,0.044-0.172c0.039-0.047,0.098-0.075,0.16-0.075H74.14c0.1,0,0.186,0.071,0.204,0.17l4.359,23.213
						c0.012,0.061-0.005,0.124-0.044,0.171C78.62,39.489,78.561,39.517,78.499,39.517z M41.124,39.1h37.125l-4.282-22.796H36.842
						L41.124,39.1z"/>
				</g>
			</g>
			<g>
				<rect x="54.625" y="27.142" style="fill:#514A40;" width="6.905" height="40.351"/>
				<path style="fill:#231F20;" d="M61.53,67.702h-6.905c-0.115,0-0.208-0.093-0.208-0.208V27.142c0-0.115,0.093-0.208,0.208-0.208
					h6.905c0.115,0,0.208,0.093,0.208,0.208v40.351C61.738,67.609,61.645,67.702,61.53,67.702z M54.833,67.285h6.488V27.351h-6.488
					V67.285z"/>
			</g>
			<g>
				<polygon style="fill:#514A40;" points="61.53,67.494 66.228,65.626 66.228,37.645 61.53,27.142 				"/>
				<path style="fill:#231F20;" d="M61.53,67.702c-0.041,0-0.082-0.012-0.117-0.036c-0.057-0.039-0.091-0.103-0.091-0.172V27.142
					c0-0.098,0.069-0.183,0.165-0.204c0.098-0.022,0.194,0.029,0.234,0.118l4.699,10.503c0.012,0.027,0.018,0.056,0.018,0.085
					v27.982c0,0.085-0.052,0.162-0.131,0.194l-4.698,1.867C61.582,67.697,61.556,67.702,61.53,67.702z M61.738,28.118v39.069
					l4.282-1.702V37.689L61.738,28.118z"/>
			</g>
			<g>
				<rect x="25.233" y="64.201" style="fill:#514A40;" width="69.523" height="21.398"/>
				<path style="fill:#231F20;" d="M94.756,85.807H25.233c-0.115,0-0.208-0.093-0.208-0.208V64.201c0-0.115,0.093-0.208,0.208-0.208
					h69.523c0.115,0,0.208,0.093,0.208,0.208v21.398C94.964,85.714,94.871,85.807,94.756,85.807z M25.441,85.391h69.107V64.409
					H25.441V85.391z"/>
			</g>
			<g>
				<rect x="25.233" y="64.201" style="fill:#514A40;" width="57.228" height="21.398"/>
				<path style="fill:#231F20;" d="M82.461,85.807H25.233c-0.115,0-0.208-0.093-0.208-0.208V64.201c0-0.115,0.093-0.208,0.208-0.208
					h57.229c0.115,0,0.208,0.093,0.208,0.208v21.398C82.669,85.714,82.576,85.807,82.461,85.807z M25.441,85.391h56.812V64.409
					H25.441V85.391z"/>
			</g>
		</g>
		<g>
			<rect x="105.76" y="62.811" style="fill:#302B23;" width="3.431" height="22.202"/>
			<path style="fill:#231F20;" d="M109.191,85.222h-3.431c-0.115,0-0.208-0.093-0.208-0.208V62.811c0-0.115,0.093-0.208,0.208-0.208
				h3.431c0.115,0,0.208,0.093,0.208,0.208v22.202C109.399,85.129,109.306,85.222,109.191,85.222z M105.969,84.805h3.014V63.019
				h-3.014V84.805z"/>
		</g>
		<g>
			<rect x="97.618" y="50.708" style="fill:#302B23;" width="19.715" height="8.948"/>
			<path style="fill:#231F20;" d="M117.333,59.864H97.618c-0.115,0-0.208-0.093-0.208-0.208v-8.948c0-0.115,0.093-0.208,0.208-0.208
				h19.715c0.115,0,0.208,0.093,0.208,0.208v8.948C117.542,59.771,117.449,59.864,117.333,59.864z M97.826,59.447h19.299v-8.531
				H97.826V59.447z"/>
		</g>
		<g>
			<g>
				<g>
					<rect x="99.43" y="42.704" style="fill:#514A40;" width="16.092" height="22.663"/>
					<path style="fill:#231F20;" d="M115.522,65.576H99.43c-0.115,0-0.208-0.093-0.208-0.208V42.704
						c0-0.115,0.093-0.208,0.208-0.208h16.092c0.115,0,0.208,0.093,0.208,0.208v22.663C115.73,65.482,115.637,65.576,115.522,65.576
						z M99.638,65.159h15.676V42.913H99.638V65.159z"/>
				</g>
				<rect x="101.011" y="45.092" style="fill:#0D0700;" width="12.93" height="4.775"/>
			</g>
			<g>
				<rect x="101.011" y="50.708" style="fill:#BEC0C2;" width="2.023" height="2.073"/>
				<rect x="103.738" y="50.708" style="fill:#BEC0C2;" width="2.023" height="2.073"/>
				<rect x="106.465" y="50.708" style="fill:#BEC0C2;" width="2.023" height="2.073"/>
				<rect x="109.191" y="50.708" style="fill:#BEC0C2;" width="2.023" height="2.073"/>
				<rect x="111.918" y="50.708" style="fill:#BEC0C2;" width="2.023" height="2.073"/>
			</g>
			<g>
				<rect x="101.011" y="53" style="fill:#BEC0C2;" width="2.023" height="2.073"/>
				<rect x="103.738" y="53" style="fill:#BEC0C2;" width="2.023" height="2.073"/>
				<rect x="106.465" y="53" style="fill:#BEC0C2;" width="2.023" height="2.073"/>
				<rect x="109.191" y="53" style="fill:#BEC0C2;" width="2.023" height="2.073"/>
				<rect x="111.918" y="53" style="fill:#BEC0C2;" width="2.023" height="2.073"/>
			</g>
			<g>
				<rect x="101.011" y="55.291" style="fill:#BEC0C2;" width="2.023" height="2.073"/>
				<rect x="103.738" y="55.291" style="fill:#BEC0C2;" width="2.023" height="2.073"/>
				<rect x="106.465" y="55.291" style="fill:#BEC0C2;" width="2.023" height="2.073"/>
				<rect x="109.191" y="55.291" style="fill:#BEC0C2;" width="2.023" height="2.073"/>
				<rect x="111.918" y="55.291" style="fill:#BEC0C2;" width="2.023" height="2.073"/>
			</g>
			<g>
				<rect x="101.011" y="57.583" style="fill:#BEC0C2;" width="2.023" height="2.073"/>
				<rect x="103.738" y="57.583" style="fill:#BEC0C2;" width="2.023" height="2.073"/>
				<rect x="106.465" y="57.583" style="fill:#BEC0C2;" width="2.023" height="2.073"/>
				<rect x="109.191" y="57.583" style="fill:#BEC0C2;" width="2.023" height="2.073"/>
				<rect x="111.918" y="57.583" style="fill:#BEC0C2;" width="2.023" height="2.073"/>
			</g>
			<g>
				<rect x="101.011" y="60.139" style="fill:#FCF062;" width="2.023" height="2.073"/>
				<rect x="103.738" y="60.139" style="fill:#BEC0C2;" width="2.023" height="2.073"/>
				<rect x="106.465" y="60.139" style="fill:#BEC0C2;" width="2.023" height="2.073"/>
				<rect x="109.191" y="60.139" style="fill:#85C54D;" width="2.023" height="2.073"/>
				<rect x="111.918" y="60.139" style="fill:#E34F26;" width="2.023" height="2.073"/>
			</g>
		</g>
		<g>
			<rect x="98.632" y="82.991" style="fill:#302B23;" width="17.688" height="2.608"/>
			<path style="fill:#231F20;" d="M116.32,85.807H98.632c-0.115,0-0.208-0.093-0.208-0.208v-2.608c0-0.115,0.093-0.208,0.208-0.208
				h17.688c0.115,0,0.208,0.093,0.208,0.208v2.608C116.528,85.714,116.435,85.807,116.32,85.807z M98.84,85.391h17.272v-2.192H98.84
				V85.391z"/>
		</g>
	</g>
</g>
</svg>
