<?xml version="1.0" encoding="UTF-8" standalone="no"?>
<!-- Created with Inkscape (http://www.inkscape.org/) -->

<svg
   height="1000"
   width="1000"
   sodipodi:docname="Typography_Canvas.svg"
   version="1.1"
   id="svg1"
   xml:space="preserve"
   inkscape:export-filename="newsboy.svg"
   inkscape:export-xdpi="96"
   inkscape:export-ydpi="96"
   xmlns:inkscape="http://www.inkscape.org/namespaces/inkscape"
   xmlns:sodipodi="http://sodipodi.sourceforge.net/DTD/sodipodi-0.dtd"
   xmlns="http://www.w3.org/2000/svg"
   xmlns:svg="http://www.w3.org/2000/svg"
   xmlns:rdf="http://www.w3.org/1999/02/22-rdf-syntax-ns#"
   xmlns:cc="http://creativecommons.org/ns#"
   xmlns:dc="http://purl.org/dc/elements/1.1/"><sodipodi:namedview
     id="base"
     pagecolor="#ffffff"
     bordercolor="#000000"
     borderopacity="0.3"
     inkscape:pageopacity="0.0"
     inkscape:pageshadow="2"
     inkscape:zoom="0.5"
     inkscape:cx="500"
     inkscape:cy="500"
     inkscape:document-units="px"
     inkscape:current-layer="layer1"
     showgrid="false"
     showguides="true"
     inkscape:window-width="1280"
     inkscape:window-height="737"
     inkscape:window-x="0"
     inkscape:window-y="0"
     inkscape:window-maximized="1"
     showborder="true"
     inkscape:showpageshadow="false"
     inkscape:pagecheckerboard="0"
     inkscape:deskcolor="#505050"><inkscape:page
       x="0"
       y="0"
       width="1000"
       height="1000"
       id="page2"
       margin="0"
       bleed="0" /></sodipodi:namedview><defs
     id="defs4"><linearGradient
       id="swatch4"
       inkscape:swatch="solid"><stop
         style="stop-color:#ffffff;stop-opacity:1;"
         offset="0"
         id="stop4" /></linearGradient></defs><metadata
     id="metadata7"><rdf:RDF><cc:Work
         rdf:about=""><dc:format>image/svg+xml</dc:format><dc:type
           rdf:resource="http://purl.org/dc/dcmitype/StillImage" /><dc:title /></cc:Work></rdf:RDF></metadata><g
     id="g265271_00000078745955019220414520000002393829950903628202_"
     transform="matrix(0.45571865,0,0,0.38961572,-778.79847,-494.93629)"
     inkscape:label="cowboy">
		<path
   id="path257034_00000025427643872004040040000015676633712247509679_"
   style="fill:#476237"
   d="m 2460.154,1695.418 c 0,-31.291 39.114,-281.619 109.519,-328.556 70.405,-46.936 367.67,-101.696 453.719,-62.582 86.051,39.114 179.924,336.378 179.924,336.378 0,0 -445.897,140.81 -743.162,54.76 z" />
		<path
   id="path258395_00000044882563377167172610000000095327043174162086_"
   style="fill:#354929"
   d="m 3106.722,1406.065 c -199.374,70.658 -496.918,137.432 -626.366,165.035 -13.255,59.222 -20.2,111.16 -20.2,124.32 297.264,86.05 743.163,-54.762 743.163,-54.762 0,0 -42.551,-134.612 -96.597,-234.593 z" />
		<path
   id="path261043_00000158017166277376798850000008995309654546643103_"
   style="fill:#ed4c22"
   d="m 3132.218,1457.141 c -164.343,22.488 -550.351,129.171 -661.322,160.341 -7.06,38.33 -10.741,68.388 -10.741,77.935 297.265,86.051 743.159,-54.761 743.159,-54.761 0,0 -29.744,-94.196 -71.096,-183.515 z" />
		<path
   id="path258280_00000133515453292991882400000005361875947169190059_"
   style="fill:#476237"
   d="m 2661.954,1609.949 c 0,0 -439.375,83.691 -460.297,146.458 -20.923,62.768 209.226,62.768 320.813,69.742 111.587,6.974 599.781,0 739.265,-55.794 139.484,-55.794 195.278,-230.148 125.536,-285.942 -69.742,-55.793 -725.317,125.536 -725.317,125.536 z" />
		<path
   id="path259705_00000183233912402783722270000005555687859885157507_"
   style="fill:#354929"
   d="m 3401.232,1547.731 c -133.46,1.411 -258.22,133.115 -401.794,193.324 -176.706,74.103 -353.413,17.101 -552.92,11.401 -117.189,-3.348 -177.296,22.801 -206.985,44.953 67.09,22.348 204.362,23.831 282.94,28.742 111.587,6.974 599.781,10e-4 739.265,-55.793 103.067,-41.227 160.357,-147.152 155.152,-222.181 -5.232,-0.355 -10.453,-0.501 -15.658,-0.446 z" />
		<path
   id="path259823_00000080198686769314652560000000214071487367055539_"
   style="fill:#5c7f47"
   d="m 2275.516,1729.654 c -28.501,22.801 -8.55,25.65 37.051,11.4 45.602,-14.25 760.977,-188.106 837.93,-199.507 76.953,-11.4 136.805,-14.25 142.505,-31.351 5.7,-17.1 -54.152,-11.4 -74.103,-8.55 -19.951,2.85 -401.864,85.503 -570.021,125.405 -168.156,39.901 -339.161,82.652 -373.362,102.603 z" />
		<path
   id="path260928_00000113322357497415315940000010841463837785087930_"
   style="fill:#5c7f47"
   d="m 2857.354,1306.343 c 0,0 -242.962,44.755 -281.325,89.512 -38.362,44.757 -38.362,115.088 6.394,108.694 44.757,-6.394 47.953,-6.394 102.3,-54.347 54.347,-47.953 79.922,-51.15 179.025,-76.725 99.104,-25.575 73.528,-73.528 -6.394,-67.134 z" />
	</g></svg>
