<svg xmlns="http://www.w3.org/2000/svg" viewBox="0 0 512 512" id="egg">
  <defs>
    <linearGradient id="a" x1="333.464" x2="188.194" y1="429.688" y2="164.327" gradientUnits="userSpaceOnUse">
      <stop offset="0" stop-color="#ff9c69"></stop>
      <stop offset=".995" stop-color="#ffccac"></stop>
    </linearGradient>
  </defs>
  <path fill="url(#a)" d="M409.749,212.342C371.291,74.7,301.225,39.655,270.78,30.8a52.916,52.916,0,0,0-29.56,0c-30.445,8.853-100.511,43.9-138.969,181.54,0,0-64.444,208.368,94.328,261.328a188.071,188.071,0,0,0,118.842,0C474.193,420.709,409.749,212.342,409.749,212.342Z"></path>
  <path fill="#fff" d="M188.517 128.431c-6.426 6.474-13.336 17.607-20.092 36.094a41.342 41.342 0 0 0-2.621 14.512c.081 9.172 3.418 20.753 20.629 17.305 0 0 53.291-9.068 35.821-60.055C217.372 122.041 199.126 117.744 188.517 128.431zM184.487 229.238c-5.946.888-13.932 2.65-20.7 6.114A20.074 20.074 0 0 0 152.815 250.7c-.021.178-.039.357-.055.537a13.674 13.674 0 0 0 20.017 13.258c9.05-4.7 21.664-13.236 22.95-24.7A9.775 9.775 0 0 0 184.487 229.238z"></path>
</svg>
