<svg xmlns:inkscape="http://www.inkscape.org/namespaces/inkscape" xmlns:sodipodi="http://sodipodi.sourceforge.net/DTD/sodipodi-0.dtd" xmlns="http://www.w3.org/2000/svg" xmlns:svg="http://www.w3.org/2000/svg" xmlns:rdf="http://www.w3.org/1999/02/22-rdf-syntax-ns#" xmlns:cc="http://creativecommons.org/ns#" xmlns:dc="http://purl.org/dc/elements/1.1/" sodipodi:docname="Typography_Canvas.svg" version="1.1" id="svg1" xml:space="preserve" inkscape:export-filename="beret.svg" inkscape:export-xdpi="96" inkscape:export-ydpi="96" viewBox="277.98 5 462.19 215.18"><sodipodi:namedview id="base" pagecolor="#ffffff" bordercolor="#000000" borderopacity="0.3" inkscape:pageopacity="0.0" inkscape:pageshadow="2" inkscape:zoom="0.5" inkscape:cx="500" inkscape:cy="500" inkscape:document-units="px" inkscape:current-layer="layer1" showgrid="false" showguides="true" inkscape:window-width="1280" inkscape:window-height="737" inkscape:window-x="0" inkscape:window-y="0" inkscape:window-maximized="1" showborder="true" inkscape:showpageshadow="false" inkscape:pagecheckerboard="0" inkscape:deskcolor="#505050"><inkscape:page x="0" y="0" width="1000" height="1000" id="page2" margin="0" bleed="0"/></sodipodi:namedview><defs id="defs4"><linearGradient id="swatch4" inkscape:swatch="solid"><stop style="stop-color:#ffffff;stop-opacity:1;" offset="0" id="stop4"/></linearGradient></defs><metadata id="metadata7"><rdf:RDF><cc:Work rdf:about=""><dc:format>image/svg+xml</dc:format><dc:type rdf:resource="http://purl.org/dc/dcmitype/StillImage"/><dc:title/></cc:Work></rdf:RDF></metadata><g id="g318594_00000072987339400925592300000011284336593567450002_" transform="matrix(0.44627852,0,0,0.31787093,219.89609,-80.386354)" inkscape:label="fedora">
		<path id="path312947_00000176722606325063522600000003108902863876912824_" style="fill:#763428" d="m 767.05,268.613 c -57.03,-0.58 -96.08,48.542 -142.654,56.304 -48.076,8.013 -116.187,-48.083 -168.269,-20.039 -49.916,26.878 -161.25,384.984 -170.521,415.035 -40.763,5.476 -126.806,19.812 -148.231,45.522 -28.329,33.995 28.331,76.492 141.647,118.985 113.316,42.494 345.618,67.988 521.258,59.489 175.639,-8.499 362.604,-87.818 365.438,-138.81 2.833,-50.992 -65.156,-79.326 -101.983,-82.159 -14.259,-1.097 -40.819,-0.054 -68.035,1.617 -6.546,-25.534 -60.757,-235.268 -90.862,-295.48 -32.05,-64.101 -72.115,-156.244 -132.21,-160.25 -1.879,-0.124 -3.738,-0.195 -5.578,-0.214 z"/>
		<path id="path315574_00000182522929629669484590000000973854824275782554_" style="fill:#57261d" d="m 872.506,365.456 c -37.612,32.231 -82.314,77.665 -97.726,122.36 -28.329,82.154 -42.494,121.814 -121.815,158.642 -79.321,36.828 -402.271,31.159 -288.954,96.315 141.645,87.82 552.416,73.654 603.408,59.489 50.992,-14.165 36.826,22.662 -5.668,65.156 -42.493,42.494 -107.649,65.16 -303.119,62.326 -129.271,-1.873 -323.711,-43.311 -440.922,-71.22 18.151,8.591 38.214,17.234 61.312,25.896 113.316,42.494 345.619,67.988 521.258,59.489 175.64,-8.499 362.605,-87.818 365.438,-138.81 2.833,-50.992 -65.156,-79.327 -101.983,-82.159 -14.259,-1.097 -40.819,-0.054 -68.035,1.617 -6.546,-25.534 -60.757,-235.268 -90.862,-295.48 -9.857,-19.712 -20.61,-41.983 -32.332,-63.621 z"/>
		<path id="path301830_00000029740490250101745800000016801328599239129013_" style="fill:#af4d3b" d="m 514.154,320.671 c 0,0 -48.16,-14.164 -45.326,8.499 2.833,22.663 79.321,70.822 138.812,67.99 59.491,-2.833 96.319,-59.491 96.319,-59.491 0,0 -56.658,39.66 -96.319,31.162 -39.661,-8.499 -65.157,-45.327 -93.486,-48.16 z"/>
		<path id="path302813_00000042706491959140470800000014450110382739601292_" style="fill:#57261d" d="m 728.038,285.26 c 0,0 -58.074,58.074 -80.738,66.573 -22.663,8.499 -42.493,-1.416 -42.493,-1.416 0,0 58.074,-19.83 123.231,-65.157 z"/>
		<path id="path304467_00000093864513645058256380000013876059084722864006_" style="fill:#476237" d="m 970.199,629.298 c -73.96,26.115 -179.324,50.758 -305.215,60.965 -142.054,11.518 -281.628,-19.668 -355.751,-44.144 -15.311,46.672 -25.376,79.428 -25.376,79.428 432.398,141.679 713.121,4.001 713.121,4.001 0,0 -11.338,-44.585 -26.779,-100.25 z"/>
		<path id="path307356_00000004523308975856641730000008559487480734900364_" style="fill:#678c52" d="m 386.017,675.933 c 0,0 74.461,15.539 130.914,19.667 -6.01,16.026 -10.724,64.001 -10.724,64.001 0,0 -110.174,-12.019 -140.221,-24.038 10.015,-32.05 20.031,-59.63 20.031,-59.63 z"/>
		<path id="path314037_00000052066821278520029580000014266158418170858635_" style="fill:#af4d3b" d="m 548.148,810.763 c 0,0 -249.295,-48.16 -274.791,-25.496 -25.496,22.663 84.987,70.822 192.637,82.154 107.65,11.332 138.813,-31.162 82.154,-56.658 z"/>
	</g></svg>