<?xml version="1.0" encoding="UTF-8" standalone="no"?>
<!-- Created with Inkscape (http://www.inkscape.org/) -->

<svg
   height="1000"
   width="1000"
   sodipodi:docname="Typography_Canvas.svg"
   version="1.1"
   id="svg1"
   xml:space="preserve"
   inkscape:export-filename="fedora.svg"
   inkscape:export-xdpi="96"
   inkscape:export-ydpi="96"
   xmlns:inkscape="http://www.inkscape.org/namespaces/inkscape"
   xmlns:sodipodi="http://sodipodi.sourceforge.net/DTD/sodipodi-0.dtd"
   xmlns="http://www.w3.org/2000/svg"
   xmlns:svg="http://www.w3.org/2000/svg"
   xmlns:rdf="http://www.w3.org/1999/02/22-rdf-syntax-ns#"
   xmlns:cc="http://creativecommons.org/ns#"
   xmlns:dc="http://purl.org/dc/elements/1.1/"><sodipodi:namedview
     id="base"
     pagecolor="#ffffff"
     bordercolor="#000000"
     borderopacity="0.3"
     inkscape:pageopacity="0.0"
     inkscape:pageshadow="2"
     inkscape:zoom="0.5"
     inkscape:cx="500"
     inkscape:cy="500"
     inkscape:document-units="px"
     inkscape:current-layer="layer1"
     showgrid="false"
     showguides="true"
     inkscape:window-width="1280"
     inkscape:window-height="737"
     inkscape:window-x="0"
     inkscape:window-y="0"
     inkscape:window-maximized="1"
     showborder="true"
     inkscape:showpageshadow="false"
     inkscape:pagecheckerboard="0"
     inkscape:deskcolor="#505050"><inkscape:page
       x="0"
       y="0"
       width="1000"
       height="1000"
       id="page2"
       margin="0"
       bleed="0" /></sodipodi:namedview><defs
     id="defs4"><linearGradient
       id="swatch4"
       inkscape:swatch="solid"><stop
         style="stop-color:#ffffff;stop-opacity:1;"
         offset="0"
         id="stop4" /></linearGradient></defs><metadata
     id="metadata7"><rdf:RDF><cc:Work
         rdf:about=""><dc:format>image/svg+xml</dc:format><dc:type
           rdf:resource="http://purl.org/dc/dcmitype/StillImage" /><dc:title /></cc:Work></rdf:RDF></metadata><g
     id="g294303_00000160170306145941981310000008450052781772350082_"
     transform="matrix(0.38108036,0,0,0.2382841,-102.78806,-267.93988)"
     inkscape:label="fez">
		<path
   id="path275350_00000096749354000895318410000011464628156730683024_"
   style="fill:#ed4c22"
   d="m 1366.43,1175.933 -110.483,549.582 c 0,0 359.778,121.815 694.06,2.833 -62.324,-371.11 -107.65,-569.413 -107.65,-569.413 0,0 -325.783,-62.323 -475.927,16.998 z" />
		<path
   id="path275857_00000136391984365791923760000012581824356058020738_"
   style="fill:#d73a12"
   d="m 1844.295,1167.587 c -46.952,31.475 -132.884,98.349 -169.078,186.823 -37.896,92.634 -72.625,316.465 -87.983,425.446 111.334,3.616 238.8,-7.377 362.772,-51.503 -55.033,-327.7 -96.69,-520.108 -105.711,-560.766 z" />
		<path
   id="path286803_00000174561439257022843110000003144219760988029370_"
   style="fill:#f17454"
   d="m 1375.447,1185.499 c 0,0 310.49,82.129 450.711,-18.029 -34.054,52.082 -294.465,126.2 -450.711,18.029 z" />
		<path
   id="path288090_00000046335759372020538240000004522942687971763590_"
   style="fill:#f17454"
   d="m 1414.589,1207.095 -90.653,518.42 c 0,0 70.823,25.496 116.149,19.83 19.83,-130.313 79.321,-521.253 79.321,-521.253 z" />
		
			<path
   id="path288205_00000034808747410097178160000000243433058591703174_"
   style="fill:none;stroke:#221816;stroke-width:2.8981;stroke-linecap:round;stroke-miterlimit:11.3386"
   d="m 1610.059,1164.602 c 0,0 161.475,0 189.804,50.993 28.329,50.992 36.828,232.297 36.828,232.297" />
		<path
   id="path294182_00000141422284598804029650000016254603287514570880_"
   style="fill:#221816"
   d="m 1833.858,1437.976 c 0,0 -14.164,9.915 -14.164,22.663 0,12.748 1.416,109.067 1.416,109.067 0,0 45.326,18.413 62.324,-7.082 -8.499,-86.404 -16.998,-135.979 -49.576,-124.648 z" />
	</g></svg>
