<?xml version="1.0" encoding="utf-8"?>
<!-- Generator: Adobe Illustrator 27.5.0, SVG Export Plug-In . SVG Version: 6.00 Build 0)  -->
<svg version="1.1" id="Capa_2" xmlns="http://www.w3.org/2000/svg" xmlns:xlink="http://www.w3.org/1999/xlink" x="0px" y="0px"
	 viewBox="0 0 2372 1898" style="enable-background:new 0 0 2372 1898;" xml:space="preserve">
<path style="fill:#FDD79D;" d="M2131.25,619.118c0.251-3.011,0.382-6.031,0.382-9.06c0-85.793-101.158-164.382-284.835-221.286
	c-176.734-54.753-411.351-84.907-660.632-84.907s-483.896,30.154-660.63,84.907C341.855,445.676,240.7,524.265,240.7,610.058
	c0,1.529,0.036,3.056,0.099,4.581c-18,271.193,88.993,543.573,287.047,729.877c166.968,157.062,394.69,245.449,641.219,248.88
	c4.997,0.07,9.943,0.102,14.929,0.102c239.494,0,464.455-80.358,634.833-227.094c106.061-91.335,190.879-209.775,245.288-342.512
	C2116.907,895.103,2140.045,755.405,2131.25,619.118z"/>
<path style="fill:#F9B036;" d="M1846.588,831.346c-7.015,2.173-14.121,4.307-21.315,6.402
	c-5.322,16.946-11.114,33.739-17.307,50.347c-36.765,98.589-91.561,194.051-162.751,271.817
	c-35.662,38.957-76.298,73.663-120.884,102.026c-47.315,30.098-99.327,52.327-152.396,70.097
	c-5.782,1.936-11.585,3.812-17.406,5.634c-2.687,45.848-48.877,79.241-93.668,96.362c-86.531,33.078-184.074,34.183-274.284,12.198
	c-77.334-18.847-149.597-53.954-215.507-97.695c-32.949-8.565-65.487-18.742-97.463-30.573
	c-83.362-30.847-161.635-75.313-231.622-130.109c32.908,46.26,70.363,89.432,112.028,128.627
	c327.366,307.944,894.976,317.447,1239.489,20.759c183.166-157.744,293.927-396.592,300.528-639.207
	C2049.226,748.903,1965.081,794.637,1846.588,831.346z"/>
<path style="fill:#EBBB7D;" d="M507.366,785.228c-24.698-25.854-37.956-53.231-37.956-81.566c0-9.021,1.348-17.944,3.977-26.752
	l-0.006-0.664c0-62.314,83.336-118.596,217.363-158.736c169.885-61.682,422.642-100.794,704.886-100.794
	c216.485,0,415.621,23.011,573.321,61.567c-150.533-76.93-428.814-135.924-782.992-135.924
	c-542.529,0-906.973,138.42-906.973,267.699C278.985,671.703,361.847,735.425,507.366,785.228z"/>
<path style="fill:#FFF8EA;" d="M1284.491,1247.209c-37.113-14.5-78.184-14.955-118.128-17.294
	c-253.711-14.86-501.094-116.688-688.265-283.305c-5.894-5.248-12.126-10.764-19.939-12.452
	c-46.444-10.031,22.664,110.987,31.261,124.765c45.554,73.001,101.403,139.947,165.399,198.531
	c26.598,24.349,54.604,47.254,83.863,68.55c10.616,7.727,21.415,15.248,32.388,22.531c65.91,43.741,138.173,78.848,215.507,97.695
	c90.21,21.985,187.753,20.88,274.284-12.198c44.79-17.121,90.981-50.515,93.668-96.362c0.087-1.487,0.129-2.988,0.123-4.501
	C1354.5,1294.397,1321.604,1261.709,1284.491,1247.209z"/>
<path style="fill:#60341C;" d="M2131.042,619.1c0.25-3.005,0.38-6.019,0.38-9.042c0-85.793-101.155-164.382-284.834-221.286
	c-176.734-54.753-411.349-84.907-660.63-84.907s-483.898,30.154-660.633,84.907C341.648,445.676,240.49,524.265,240.49,610.058
	c0,1.537,0.036,3.072,0.102,4.605c-17.995,271.18,88.998,543.551,287.049,729.856c166.964,157.063,394.687,245.45,641.216,248.878
	c4.997,0.07,9.945,0.105,14.929,0.105c239.496,0,464.458-80.361,634.839-227.097c106.058-91.338,190.876-209.775,245.283-342.512
	C2116.703,895.098,2139.84,755.392,2131.042,619.1z M1185.958,342.359c354.179,0,632.459,58.994,782.992,135.924
	c80.052,40.911,123.978,86.894,123.978,131.775c0,82.506-148.432,168.732-396.852,220.327l0.335-0.107
	c0.659-0.209,1.317-0.419,1.974-0.63l1.045-0.336c0.541-0.174,1.081-0.349,1.62-0.523l1.209-0.393
	c0.592-0.192,1.182-0.386,1.772-0.579l0.864-0.283c0.85-0.28,1.698-0.561,2.543-0.841l0.62-0.208
	c0.731-0.243,1.462-0.488,2.19-0.733l1.095-0.37c0.541-0.182,1.08-0.365,1.619-0.549l1.066-0.363
	c0.563-0.192,1.123-0.385,1.685-0.578l0.96-0.33c0.611-0.211,1.22-0.423,1.829-0.635l0.866-0.302
	c0.818-0.286,1.633-0.572,2.446-0.858l0.159-0.056c0.87-0.307,1.736-0.616,2.6-0.925l0.8-0.287c0.596-0.213,1.19-0.427,1.783-0.641
	l1.038-0.377c0.511-0.185,1.022-0.372,1.533-0.558l1.06-0.388c0.52-0.191,1.039-0.383,1.558-0.574l1.001-0.37
	c0.678-0.252,1.354-0.504,2.028-0.757l0.492-0.184c0.846-0.317,1.688-0.636,2.528-0.955l0.564-0.215
	c0.659-0.25,1.315-0.501,1.97-0.753l0.802-0.309c0.549-0.211,1.096-0.423,1.642-0.635l0.93-0.362
	c0.573-0.223,1.145-0.447,1.715-0.672l0.744-0.292c0.627-0.248,1.253-0.496,1.877-0.745l0.636-0.253
	c0.811-0.323,1.616-0.647,2.421-0.972l0.577-0.234c0.583-0.237,1.168-0.474,1.749-0.711l0.973-0.399l1.465-0.604l0.946-0.391
	l1.462-0.61l0.947-0.396c0.534-0.224,1.068-0.45,1.599-0.675l0.739-0.312c0.766-0.326,1.531-0.653,2.291-0.979l0.665-0.287
	c0.556-0.24,1.111-0.48,1.665-0.721l0.77-0.336c0.537-0.234,1.072-0.469,1.605-0.704l0.757-0.334
	c0.539-0.239,1.077-0.477,1.614-0.716l0.675-0.301c0.719-0.322,1.436-0.644,2.15-0.967l0.094-0.042
	c0.779-0.353,1.557-0.706,2.33-1.061l0.359-0.165c0.641-0.294,1.279-0.59,1.916-0.885l0.534-0.249
	c0.558-0.26,1.115-0.52,1.669-0.781l0.702-0.33l1.487-0.705l0.765-0.364c0.52-0.248,1.036-0.498,1.554-0.746l0.62-0.298
	c0.715-0.345,1.425-0.691,2.134-1.037l0.421-0.207c0.571-0.281,1.141-0.562,1.708-0.842l0.667-0.331l1.483-0.741l0.677-0.34
	c0.527-0.266,1.051-0.532,1.575-0.798l0.49-0.249c0.635-0.324,1.266-0.648,1.896-0.973l0.207-0.107
	c0.703-0.364,1.404-0.728,2.101-1.093l0.404-0.213c0.536-0.281,1.07-0.563,1.602-0.844l0.693-0.37l1.376-0.736l0.651-0.351
	l1.465-0.795l0.506-0.276c0.531-0.291,1.06-0.581,1.587-0.873l0.449-0.248c1.309-0.726,2.604-1.454,3.887-2.185l0.611-0.349
	l1.269-0.729l0.703-0.408l1.292-0.753l0.572-0.336c0.536-0.315,1.069-0.63,1.599-0.945l0.247-0.147
	c0.634-0.378,1.264-0.756,1.891-1.135l0.282-0.171c0.526-0.319,1.049-0.638,1.571-0.958l0.472-0.291l1.369-0.847l0.511-0.319
	l1.343-0.844l0.466-0.294l1.489-0.95l0.288-0.184c1.188-0.765,2.363-1.531,3.524-2.301l0.411-0.273l1.331-0.891l0.452-0.306
	l1.262-0.857l0.456-0.312l1.34-0.925l0.331-0.23c1.107-0.771,2.199-1.544,3.276-2.32l0.454-0.328l1.147-0.833l0.512-0.375
	l1.106-0.818l0.468-0.348l1.275-0.959l0.252-0.19c1.049-0.796,2.084-1.595,3.104-2.396l0.308-0.243l1.17-0.929l0.419-0.335
	l1.115-0.9l0.356-0.289l1.154-0.949l0.316-0.26c0.963-0.801,1.912-1.604,2.846-2.409l0.276-0.239l1.092-0.951l0.414-0.365
	l0.923-0.819l0.452-0.406l0.998-0.905l0.301-0.273c0.888-0.814,1.762-1.632,2.621-2.45l0.245-0.235l1.007-0.971l0.348-0.34
	l0.932-0.918l0.319-0.317l0.914-0.922l0.325-0.329c0.81-0.826,1.605-1.654,2.384-2.484l0.113-0.121l1.003-1.081l0.327-0.357
	l0.804-0.888l0.326-0.363l0.828-0.937l0.264-0.301c0.731-0.838,1.447-1.678,2.147-2.521l0.119-0.144l0.9-1.097l0.252-0.313
	l0.767-0.961l0.244-0.309l0.766-0.985l0.23-0.298l0.899-1.19l0.041-0.055l0.947-1.289l0.151-0.21l0.755-1.059l0.216-0.309
	l0.677-0.978l0.224-0.327l0.668-0.994l0.187-0.282l0.785-1.207l0.037-0.059l0.822-1.306l0.12-0.196l0.668-1.099l0.175-0.295
	l0.571-0.972l0.219-0.379l0.538-0.952l0.182-0.326l0.633-1.16l0.061-0.113c0.466-0.872,0.915-1.746,1.349-2.622l0.142-0.291
	l0.488-1.008l0.166-0.355l0.446-0.963l0.156-0.345l0.48-1.087l0.092-0.21c0.379-0.88,0.74-1.762,1.085-2.646l0.096-0.248
	l0.399-1.054l0.128-0.346l0.353-0.984l0.119-0.339l0.386-1.14l0.053-0.159c0.291-0.888,0.564-1.778,0.82-2.669l0.085-0.299
	l0.283-1.023l0.093-0.353l0.262-1.022l0.076-0.306l0.269-1.144l0.041-0.18c0.203-0.9,0.386-1.801,0.553-2.704l0.046-0.255
	l0.185-1.058l0.062-0.387l0.147-0.958l0.056-0.385l0.144-1.082l0.031-0.233c0.11-0.903,0.203-1.807,0.278-2.713l0.022-0.285
	l0.073-1.031l0.025-0.406l0.051-0.993l0.014-0.334l0.034-1.104l0.006-0.25l0.014-1.364c0-110.016-259.764-201.235-599.64-218.002
	c-7.358-0.363-14.751-0.691-22.18-0.984c-8.917-0.351-17.884-0.65-26.9-0.899c-3.005-0.083-6.015-0.159-9.031-0.23
	c-6.031-0.142-12.084-0.261-18.157-0.356c-12.146-0.191-24.372-0.287-36.669-0.287c-1.406,0-2.811,0.001-4.215,0.004
	c-0.598,0.001-1.193,0.003-1.791,0.004c-0.869,0.002-1.74,0.005-2.61,0.008c-0.578,0.003-1.157,0.005-1.735,0.008
	c-0.855,0.004-1.71,0.007-2.564,0.012c-0.579,0.003-1.157,0.006-1.736,0.01c-0.971,0.006-1.941,0.013-2.911,0.02l-1.3,0.009
	c-1.064,0.009-2.127,0.018-3.19,0.028l-1.221,0.011c-1.186,0.012-2.373,0.025-3.559,0.038l-0.799,0.009
	c-1.45,0.017-2.897,0.036-4.345,0.056l-0.732,0.01c-1.175,0.017-2.348,0.034-3.52,0.052c-0.507,0.007-1.012,0.016-1.517,0.024
	c-0.873,0.014-1.746,0.029-2.617,0.044c-0.567,0.01-1.133,0.02-1.7,0.03c-0.959,0.017-1.919,0.035-2.879,0.053l-1.441,0.029
	c-0.891,0.018-1.783,0.036-2.676,0.055c-0.55,0.012-1.101,0.023-1.652,0.035c-1.142,0.025-2.285,0.051-3.428,0.077l-0.775,0.018
	c-1.444,0.034-2.887,0.069-4.327,0.106l-0.672,0.018c-1.161,0.03-2.323,0.06-3.481,0.092c-0.545,0.015-1.088,0.031-1.634,0.046
	c-0.871,0.025-1.743,0.049-2.614,0.075c-0.513,0.015-1.025,0.03-1.537,0.045c-0.93,0.028-1.86,0.056-2.791,0.085
	c-0.53,0.016-1.06,0.033-1.589,0.05c-0.944,0.03-1.886,0.061-2.828,0.092l-1.291,0.042c-1.014,0.034-2.028,0.07-3.041,0.105
	l-1.348,0.046c-1.356,0.048-2.712,0.098-4.065,0.148l-1.224,0.046c-0.972,0.037-1.945,0.074-2.916,0.112
	c-0.577,0.022-1.155,0.046-1.732,0.069c-0.824,0.033-1.649,0.066-2.473,0.1c-0.602,0.025-1.203,0.05-1.805,0.075
	c-0.785,0.033-1.57,0.066-2.354,0.1c-0.596,0.026-1.193,0.051-1.79,0.078c-0.836,0.036-1.671,0.074-2.507,0.111
	c-0.562,0.025-1.123,0.05-1.684,0.076c-0.769,0.035-1.538,0.071-2.308,0.107c-0.654,0.031-1.309,0.061-1.964,0.092
	c-1.308,0.063-2.616,0.125-3.922,0.19l-0.945,0.047c-1.086,0.054-2.17,0.108-3.253,0.163l-1.373,0.071
	c-0.919,0.047-1.836,0.095-2.753,0.144l-1.489,0.08c-0.923,0.05-1.845,0.1-2.766,0.151l-1.47,0.081
	c-0.819,0.046-1.635,0.092-2.452,0.138c-0.608,0.035-1.215,0.069-1.822,0.104c-0.958,0.055-1.917,0.112-2.874,0.168l-1.057,0.062
	c-1.381,0.083-2.762,0.165-4.14,0.249l-0.604,0.038c-1.169,0.072-2.337,0.145-3.505,0.219l-1.224,0.078
	c-0.947,0.061-1.893,0.122-2.838,0.183c-0.565,0.037-1.13,0.074-1.695,0.112c-0.771,0.051-1.54,0.102-2.309,0.153
	c-0.572,0.038-1.143,0.076-1.714,0.115c-0.805,0.055-1.61,0.11-2.414,0.165c-0.601,0.041-1.203,0.083-1.803,0.125
	c-0.67,0.047-1.339,0.094-2.006,0.141c-0.676,0.048-1.354,0.096-2.029,0.144c-2.617,0.188-5.228,0.38-7.834,0.577
	c-0.534,0.04-1.068,0.081-1.601,0.122c-0.822,0.063-1.644,0.125-2.465,0.189c-0.541,0.042-1.082,0.084-1.623,0.127
	c-0.805,0.063-1.61,0.126-2.414,0.19c-0.581,0.046-1.16,0.093-1.74,0.139c-0.694,0.056-1.387,0.112-2.079,0.168
	c-0.66,0.053-1.321,0.107-1.981,0.161c-0.746,0.061-1.492,0.123-2.237,0.185c-0.556,0.046-1.113,0.093-1.669,0.139
	c-1.06,0.089-2.119,0.179-3.177,0.269l-0.747,0.064c-1.268,0.108-2.533,0.219-3.797,0.33c-0.552,0.049-1.104,0.098-1.656,0.147
	c-0.826,0.074-1.652,0.146-2.478,0.22c-0.534,0.048-1.069,0.097-1.604,0.145c-0.727,0.066-1.453,0.132-2.179,0.199
	c-0.626,0.057-1.251,0.115-1.877,0.172c-0.684,0.064-1.369,0.127-2.052,0.191c-0.66,0.062-1.319,0.124-1.978,0.186
	c-0.728,0.069-1.456,0.138-2.184,0.208c-0.503,0.049-1.008,0.097-1.512,0.145c-0.901,0.087-1.802,0.175-2.702,0.263l-1.35,0.132
	c-1.243,0.122-2.484,0.246-3.723,0.37l-1.419,0.143c-0.844,0.086-1.689,0.171-2.533,0.258c-0.518,0.053-1.034,0.106-1.551,0.16
	c-0.74,0.076-1.481,0.153-2.219,0.23c-0.666,0.069-1.331,0.14-1.996,0.21c-0.573,0.06-1.146,0.121-1.719,0.182
	c-0.694,0.074-1.387,0.148-2.078,0.222c-0.673,0.072-1.345,0.145-2.018,0.218c-0.578,0.063-1.157,0.125-1.734,0.189
	c-0.725,0.079-1.45,0.159-2.175,0.239c-0.583,0.064-1.164,0.128-1.746,0.193l-1.151,0.129c-1.408,0.158-2.814,0.317-4.218,0.477
	c-0.703,0.08-1.408,0.161-2.109,0.242c-0.562,0.065-1.123,0.13-1.684,0.195c-0.661,0.077-1.322,0.154-1.982,0.231
	c-0.632,0.074-1.262,0.148-1.893,0.223c-0.739,0.087-1.476,0.175-2.213,0.263l-1.409,0.169c-0.836,0.1-1.67,0.201-2.505,0.303
	l-1.34,0.163c-0.817,0.1-1.633,0.2-2.448,0.302l-1.475,0.182c-0.562,0.07-1.122,0.142-1.683,0.211
	c-1.253,0.157-2.505,0.316-3.754,0.475c-0.629,0.08-1.258,0.161-1.885,0.241c-0.614,0.079-1.227,0.158-1.839,0.238
	c-0.597,0.078-1.196,0.155-1.792,0.233c-0.654,0.085-1.307,0.171-1.961,0.257c-0.606,0.08-1.213,0.16-1.818,0.24
	c-0.642,0.085-1.285,0.171-1.925,0.257c-0.633,0.085-1.265,0.17-1.895,0.255c-0.555,0.075-1.109,0.15-1.663,0.224
	c-0.738,0.1-1.474,0.201-2.211,0.302c-0.531,0.072-1.065,0.145-1.596,0.219c-0.637,0.088-1.272,0.177-1.907,0.266
	c-1.098,0.152-2.193,0.306-3.287,0.46c-0.654,0.092-1.308,0.184-1.96,0.276c-0.652,0.093-1.303,0.187-1.953,0.28
	c-0.536,0.077-1.071,0.153-1.606,0.23c-0.675,0.098-1.349,0.196-2.024,0.293c-0.551,0.08-1.102,0.161-1.652,0.241
	c-0.672,0.099-1.344,0.198-2.015,0.296l-1.466,0.217c-0.751,0.112-1.504,0.224-2.255,0.336l-1.262,0.19
	c-0.732,0.11-1.465,0.221-2.197,0.331l-1.345,0.206c-1.361,0.208-2.716,0.416-4.071,0.626c-0.526,0.082-1.052,0.163-1.578,0.245
	c-0.589,0.092-1.176,0.185-1.765,0.277c-0.575,0.091-1.151,0.181-1.726,0.272c-0.702,0.111-1.403,0.223-2.104,0.335l-1.456,0.233
	c-0.609,0.098-1.217,0.195-1.823,0.293c-0.678,0.109-1.355,0.22-2.031,0.33c-0.506,0.083-1.013,0.165-1.519,0.248
	c-0.601,0.098-1.2,0.197-1.801,0.296c-0.66,0.109-1.322,0.218-1.982,0.327l-0.736,0.123c-1.877,0.313-3.75,0.629-5.617,0.946
	l-0.247,0.042c-0.751,0.128-1.502,0.257-2.253,0.387l-1.237,0.213c-0.699,0.121-1.397,0.242-2.096,0.364l-1.444,0.252
	c-0.629,0.11-1.256,0.22-1.883,0.331c-0.566,0.1-1.132,0.2-1.697,0.301c-0.6,0.107-1.201,0.213-1.799,0.32l-1.399,0.25
	c-0.742,0.134-1.485,0.267-2.226,0.401l-0.417,0.076c-1.772,0.321-3.541,0.645-5.303,0.972l-0.78,0.144l-1.424,0.266
	c-0.693,0.129-1.387,0.259-2.078,0.389c-0.626,0.118-1.25,0.235-1.876,0.354l-1.228,0.233c-0.719,0.137-1.438,0.274-2.156,0.412
	l-1.375,0.264c-0.667,0.129-1.334,0.258-1.999,0.386l-1.141,0.222c-0.764,0.149-1.528,0.298-2.29,0.448l-0.664,0.131
	c-2.447,0.481-4.881,0.968-7.307,1.459c-0.579,0.118-1.159,0.234-1.738,0.352c-0.593,0.121-1.184,0.243-1.776,0.364l-1.407,0.289
	c-0.703,0.145-1.405,0.29-2.107,0.436l-1.048,0.218c-0.74,0.154-1.479,0.309-2.217,0.464l-1.069,0.225
	c-0.697,0.147-1.395,0.294-2.091,0.442l-1.244,0.266c-2.401,0.513-4.791,1.03-7.17,1.551l-1.077,0.236
	c-0.626,0.137-1.249,0.276-1.873,0.414l-1.336,0.296c-0.639,0.142-1.277,0.285-1.913,0.428l-1.324,0.297
	c-0.582,0.13-1.163,0.262-1.743,0.394l-1.49,0.339c-0.622,0.142-1.246,0.284-1.867,0.427l-1.001,0.23
	c-0.72,0.166-1.441,0.331-2.159,0.498l-0.195,0.046c-1.527,0.355-3.048,0.711-4.566,1.069l-1.348,0.319
	c-0.548,0.13-1.094,0.26-1.641,0.391l-1.374,0.329c-0.585,0.14-1.166,0.28-1.748,0.421c-0.506,0.122-1.01,0.244-1.514,0.367
	c-0.549,0.133-1.097,0.267-1.645,0.401l-1.336,0.327c-0.625,0.153-1.249,0.307-1.872,0.461l-1.035,0.257
	c-0.677,0.168-1.353,0.335-2.027,0.504l-0.069,0.017h0.002c-16.666,4.166-32.714,8.56-48.096,13.166
	c-134.028,40.14-217.363,96.422-217.363,158.736l0.006,0.664c0.568,59.708,77.644,113.838,202.455,153.476
	c-62.811-13.046-119.231-28.305-168.475-45.158c-145.52-49.803-228.381-113.526-228.381-175.17
	C278.985,480.779,643.429,342.359,1185.958,342.359z M1793.502,1337.239c-344.513,296.687-912.123,287.185-1239.489-20.759
	c-41.665-39.195-79.12-82.367-112.028-128.627c-101.508-142.69-159.719-314.779-164.532-490.309
	c44.695,51.067,129.002,96.976,247.872,133.802c176.734,54.753,411.352,84.907,660.633,84.907
	c239.388,0,465.25-27.808,639.315-78.505c7.194-2.096,14.3-4.23,21.315-6.402c118.493-36.709,202.638-82.443,247.443-133.314
	C2087.429,940.647,1976.668,1179.495,1793.502,1337.239z"/>
<path style="fill:#4C2815;" d="M1699.43,829.312c0.541-0.174,1.081-0.349,1.62-0.523l1.209-0.393
	c0.592-0.192,1.182-0.386,1.772-0.579l0.864-0.283c0.85-0.28,1.698-0.561,2.543-0.841l0.62-0.208
	c0.731-0.243,1.462-0.488,2.19-0.733l1.095-0.37c0.541-0.182,1.08-0.365,1.619-0.549l1.066-0.363
	c0.563-0.192,1.123-0.385,1.685-0.578l0.96-0.33c0.611-0.211,1.22-0.423,1.829-0.635l0.866-0.302
	c0.818-0.286,1.633-0.572,2.446-0.858l0.159-0.056c0.87-0.307,1.736-0.616,2.6-0.925l0.8-0.287c0.596-0.213,1.19-0.427,1.783-0.641
	l1.038-0.377c0.511-0.185,1.022-0.372,1.533-0.558l1.06-0.388c0.52-0.191,1.039-0.383,1.558-0.574l1.001-0.37
	c0.678-0.252,1.354-0.504,2.028-0.757l0.492-0.184c0.846-0.317,1.688-0.636,2.528-0.955l0.564-0.215
	c0.659-0.25,1.315-0.501,1.97-0.753l0.802-0.309c0.549-0.211,1.096-0.423,1.642-0.635l0.93-0.362
	c0.573-0.223,1.145-0.447,1.715-0.672l0.744-0.292c0.627-0.248,1.253-0.496,1.877-0.745l0.636-0.253
	c0.811-0.323,1.616-0.647,2.421-0.972l0.577-0.234c0.583-0.237,1.168-0.474,1.749-0.711l0.973-0.399l1.465-0.604l0.946-0.391
	l1.462-0.61l0.947-0.396c0.534-0.224,1.068-0.45,1.599-0.675l0.739-0.312c0.766-0.326,1.531-0.653,2.291-0.979l0.665-0.287
	c0.556-0.24,1.111-0.48,1.665-0.721l0.77-0.336c0.537-0.234,1.072-0.469,1.605-0.704l0.757-0.334
	c0.539-0.239,1.077-0.477,1.614-0.716l0.675-0.301c0.719-0.322,1.436-0.644,2.15-0.967l0.094-0.042
	c0.779-0.353,1.557-0.706,2.33-1.061l0.359-0.165c0.641-0.294,1.279-0.59,1.916-0.885l0.534-0.249
	c0.558-0.26,1.115-0.52,1.669-0.781l0.702-0.33l1.487-0.705l0.765-0.364c0.52-0.248,1.036-0.498,1.554-0.746l0.62-0.298
	c0.715-0.345,1.425-0.691,2.134-1.037l0.421-0.207c0.571-0.281,1.141-0.562,1.708-0.842l0.667-0.331l1.483-0.741l0.677-0.34
	c0.527-0.266,1.051-0.532,1.575-0.798l0.49-0.249c0.635-0.324,1.266-0.648,1.896-0.973l0.207-0.107
	c0.703-0.364,1.404-0.728,2.101-1.093l0.404-0.213c0.536-0.281,1.07-0.563,1.602-0.844l0.693-0.37l1.376-0.736l0.651-0.351
	l1.465-0.795l0.506-0.276c0.531-0.291,1.06-0.581,1.587-0.873l0.449-0.248c1.309-0.726,2.604-1.454,3.887-2.185l0.611-0.349
	l1.269-0.729l0.703-0.408l1.292-0.753l0.572-0.336c0.536-0.315,1.069-0.63,1.599-0.945l0.247-0.147
	c0.634-0.378,1.264-0.756,1.891-1.135l0.282-0.171c0.526-0.319,1.049-0.638,1.571-0.958l0.472-0.291l1.369-0.847l0.511-0.319
	l1.343-0.844l0.466-0.294l1.489-0.95l0.288-0.184c1.188-0.765,2.363-1.531,3.524-2.301l0.411-0.273l1.331-0.891l0.452-0.306
	l1.262-0.857l0.456-0.312l1.34-0.925l0.331-0.23c1.107-0.771,2.199-1.544,3.276-2.32l0.454-0.328l1.147-0.833l0.512-0.375
	l1.106-0.818l0.468-0.348l1.275-0.959l0.252-0.19c1.049-0.796,2.084-1.595,3.104-2.396l0.308-0.243l1.17-0.929l0.419-0.335
	l1.115-0.9l0.356-0.289l1.154-0.949l0.316-0.26c0.963-0.801,1.912-1.604,2.846-2.409l0.276-0.239l1.092-0.951l0.414-0.365
	l0.923-0.819l0.452-0.406l0.998-0.905l0.301-0.273c0.888-0.814,1.762-1.632,2.621-2.45l0.245-0.235l1.007-0.971l0.348-0.34
	l0.932-0.918l0.319-0.317l0.914-0.922l0.325-0.329c0.81-0.826,1.605-1.654,2.384-2.484l0.113-0.121l1.003-1.081l0.327-0.357
	l0.804-0.888l0.326-0.363l0.828-0.937l0.264-0.301c0.731-0.838,1.447-1.678,2.147-2.521l0.119-0.144l0.9-1.097l0.252-0.313
	l0.767-0.961l0.244-0.309l0.766-0.985l0.23-0.298l0.899-1.19l0.041-0.055l0.947-1.289l0.151-0.21l0.755-1.059l0.216-0.309
	l0.677-0.978l0.224-0.327l0.668-0.994l0.187-0.282l0.785-1.207l0.037-0.059l0.822-1.306l0.12-0.196l0.668-1.099l0.175-0.295
	l0.571-0.972l0.219-0.379l0.538-0.952l0.182-0.326l0.633-1.16l0.061-0.113c0.466-0.872,0.915-1.746,1.349-2.622l0.142-0.291
	l0.488-1.008l0.166-0.355l0.446-0.963l0.156-0.345l0.48-1.087l0.092-0.21c0.379-0.88,0.74-1.762,1.085-2.646l0.096-0.248
	l0.399-1.054l0.128-0.346l0.353-0.984l0.119-0.339l0.386-1.14l0.053-0.159c0.291-0.888,0.564-1.778,0.82-2.669l0.085-0.299
	l0.283-1.023l0.093-0.353l0.262-1.022l0.076-0.306l0.269-1.144l0.041-0.18c0.203-0.9,0.386-1.801,0.553-2.704l0.046-0.255
	l0.185-1.058l0.062-0.387l0.147-0.958l0.056-0.385l0.144-1.082l0.031-0.233c0.11-0.903,0.203-1.807,0.278-2.713l0.022-0.285
	l0.073-1.031l0.025-0.406l0.051-0.993l0.014-0.334l0.034-1.104l0.006-0.25l0.014-1.364c0-110.016-259.764-201.235-599.64-218.002
	c-7.358-0.363-14.751-0.691-22.18-0.984c-8.917-0.351-17.884-0.65-26.9-0.899c-3.005-0.083-6.015-0.159-9.031-0.23
	c-6.031-0.142-12.084-0.261-18.157-0.356c-12.146-0.191-24.372-0.287-36.669-0.287c-1.406,0-2.811,0.001-4.215,0.004
	c-0.598,0.001-1.193,0.003-1.791,0.004c-0.869,0.002-1.74,0.005-2.61,0.008c-0.578,0.003-1.157,0.005-1.735,0.008
	c-0.855,0.004-1.71,0.007-2.564,0.012c-0.579,0.003-1.157,0.006-1.736,0.01c-0.971,0.006-1.941,0.013-2.911,0.02l-1.3,0.009
	c-1.064,0.009-2.127,0.018-3.19,0.028l-1.221,0.011c-1.186,0.012-2.373,0.025-3.559,0.038l-0.799,0.009
	c-1.45,0.017-2.897,0.036-4.345,0.056l-0.732,0.01c-1.175,0.017-2.348,0.034-3.52,0.052c-0.507,0.007-1.012,0.016-1.517,0.024
	c-0.873,0.014-1.746,0.029-2.617,0.044c-0.567,0.01-1.133,0.02-1.7,0.03c-0.959,0.017-1.919,0.035-2.879,0.053l-1.441,0.029
	c-0.891,0.018-1.783,0.036-2.676,0.055c-0.55,0.012-1.101,0.023-1.652,0.035c-1.142,0.025-2.285,0.051-3.428,0.077l-0.775,0.018
	c-1.444,0.034-2.887,0.069-4.327,0.106l-0.672,0.018c-1.161,0.03-2.323,0.06-3.481,0.092c-0.545,0.015-1.088,0.031-1.634,0.046
	c-0.871,0.025-1.743,0.049-2.614,0.075c-0.513,0.015-1.025,0.03-1.537,0.045c-0.93,0.028-1.86,0.056-2.791,0.085
	c-0.53,0.016-1.06,0.033-1.589,0.05c-0.944,0.03-1.886,0.061-2.828,0.092l-1.291,0.042c-1.014,0.034-2.028,0.07-3.041,0.105
	l-1.348,0.046c-1.356,0.048-2.712,0.098-4.065,0.148l-1.224,0.046c-0.972,0.037-1.945,0.074-2.916,0.112
	c-0.577,0.022-1.155,0.046-1.732,0.069c-0.824,0.033-1.649,0.066-2.473,0.1c-0.602,0.025-1.203,0.05-1.805,0.075
	c-0.785,0.033-1.57,0.066-2.354,0.1c-0.596,0.026-1.193,0.051-1.79,0.078c-0.836,0.036-1.671,0.074-2.507,0.111
	c-0.562,0.025-1.123,0.05-1.684,0.076c-0.769,0.035-1.538,0.071-2.308,0.107c-0.654,0.031-1.309,0.061-1.964,0.092
	c-1.308,0.063-2.616,0.125-3.922,0.19l-0.945,0.047c-1.086,0.054-2.17,0.108-3.253,0.163l-1.373,0.071
	c-0.919,0.047-1.836,0.095-2.753,0.144l-1.489,0.08c-0.923,0.05-1.845,0.1-2.766,0.151l-1.47,0.081
	c-0.819,0.046-1.635,0.092-2.452,0.138c-0.608,0.035-1.215,0.069-1.822,0.104c-0.958,0.055-1.917,0.112-2.874,0.168l-1.057,0.062
	c-1.381,0.083-2.762,0.165-4.14,0.249l-0.604,0.038c-1.169,0.072-2.337,0.145-3.505,0.219l-1.224,0.078
	c-0.947,0.061-1.893,0.122-2.838,0.183c-0.565,0.037-1.13,0.074-1.695,0.112c-0.771,0.051-1.54,0.102-2.309,0.153
	c-0.572,0.038-1.143,0.076-1.714,0.115c-0.805,0.055-1.61,0.11-2.414,0.165c-0.601,0.041-1.203,0.083-1.803,0.125
	c-0.67,0.047-1.339,0.094-2.006,0.141c-0.676,0.048-1.354,0.096-2.029,0.144c-2.617,0.188-5.228,0.38-7.834,0.577
	c-0.534,0.04-1.068,0.081-1.601,0.122c-0.822,0.063-1.644,0.125-2.465,0.189c-0.541,0.042-1.082,0.084-1.623,0.127
	c-0.805,0.063-1.61,0.126-2.414,0.19c-0.581,0.046-1.16,0.093-1.74,0.139c-0.694,0.056-1.387,0.112-2.079,0.168
	c-0.66,0.053-1.321,0.107-1.981,0.161c-0.746,0.061-1.492,0.123-2.237,0.185c-0.556,0.046-1.113,0.093-1.669,0.139
	c-1.06,0.089-2.119,0.179-3.177,0.269l-0.747,0.064c-1.268,0.108-2.533,0.219-3.797,0.33c-0.552,0.049-1.104,0.098-1.656,0.147
	c-0.826,0.074-1.652,0.146-2.478,0.22c-0.534,0.048-1.069,0.097-1.604,0.145c-0.727,0.066-1.453,0.132-2.179,0.199
	c-0.626,0.057-1.251,0.115-1.877,0.172c-0.684,0.064-1.369,0.127-2.052,0.191c-0.66,0.062-1.319,0.124-1.978,0.186
	c-0.728,0.069-1.456,0.138-2.184,0.208c-0.503,0.049-1.008,0.097-1.512,0.145c-0.901,0.087-1.802,0.175-2.702,0.263l-1.35,0.132
	c-1.243,0.122-2.484,0.246-3.723,0.37l-1.419,0.143c-0.844,0.086-1.689,0.171-2.533,0.258c-0.518,0.053-1.034,0.106-1.551,0.16
	c-0.74,0.076-1.481,0.153-2.219,0.23c-0.666,0.069-1.331,0.14-1.996,0.21c-0.573,0.06-1.146,0.121-1.719,0.182
	c-0.694,0.074-1.387,0.148-2.078,0.222c-0.673,0.072-1.345,0.145-2.018,0.218c-0.578,0.063-1.157,0.125-1.734,0.189
	c-0.725,0.079-1.45,0.159-2.175,0.239c-0.583,0.064-1.164,0.128-1.746,0.193l-1.151,0.129c-1.408,0.158-2.814,0.317-4.218,0.477
	c-0.703,0.08-1.408,0.161-2.109,0.242c-0.562,0.065-1.123,0.13-1.684,0.195c-0.661,0.077-1.322,0.154-1.982,0.231
	c-0.632,0.074-1.262,0.148-1.893,0.223c-0.739,0.087-1.476,0.175-2.213,0.263l-1.409,0.169c-0.836,0.1-1.67,0.201-2.505,0.303
	l-1.34,0.163c-0.817,0.1-1.633,0.2-2.448,0.302l-1.475,0.182c-0.562,0.07-1.122,0.142-1.683,0.211
	c-1.253,0.157-2.505,0.316-3.754,0.475c-0.629,0.08-1.258,0.161-1.885,0.241c-0.614,0.079-1.227,0.158-1.839,0.238
	c-0.597,0.078-1.196,0.155-1.792,0.233c-0.654,0.085-1.307,0.171-1.961,0.257c-0.606,0.08-1.213,0.16-1.818,0.24
	c-0.642,0.085-1.285,0.171-1.925,0.257c-0.633,0.085-1.265,0.17-1.895,0.255c-0.555,0.075-1.109,0.15-1.663,0.224
	c-0.738,0.1-1.474,0.201-2.211,0.302c-0.531,0.072-1.065,0.145-1.596,0.219c-0.637,0.088-1.272,0.177-1.907,0.266
	c-1.098,0.152-2.193,0.306-3.287,0.46c-0.654,0.092-1.308,0.184-1.96,0.276c-0.652,0.093-1.303,0.187-1.953,0.28
	c-0.536,0.077-1.071,0.153-1.606,0.23c-0.675,0.098-1.349,0.196-2.024,0.293c-0.551,0.08-1.102,0.161-1.652,0.241
	c-0.672,0.099-1.344,0.198-2.015,0.296l-1.466,0.217c-0.751,0.112-1.504,0.224-2.255,0.336l-1.262,0.19
	c-0.732,0.11-1.465,0.221-2.197,0.331l-1.345,0.206c-1.361,0.208-2.716,0.416-4.071,0.626c-0.526,0.082-1.052,0.163-1.578,0.245
	c-0.589,0.092-1.176,0.185-1.765,0.277c-0.575,0.091-1.151,0.181-1.726,0.272c-0.702,0.111-1.403,0.223-2.104,0.335l-1.456,0.233
	c-0.609,0.098-1.217,0.195-1.823,0.293c-0.678,0.109-1.355,0.22-2.031,0.33c-0.506,0.083-1.013,0.165-1.519,0.248
	c-0.601,0.098-1.2,0.197-1.801,0.296c-0.66,0.109-1.322,0.218-1.982,0.327l-0.736,0.123c-1.877,0.313-3.75,0.629-5.617,0.946
	l-0.247,0.042c-0.751,0.128-1.502,0.257-2.253,0.387l-1.237,0.213c-0.699,0.121-1.397,0.242-2.096,0.364l-1.444,0.252
	c-0.629,0.11-1.256,0.22-1.883,0.331c-0.566,0.1-1.132,0.2-1.697,0.301c-0.6,0.107-1.201,0.213-1.799,0.32l-1.399,0.25
	c-0.742,0.134-1.485,0.267-2.226,0.401l-0.417,0.076c-1.772,0.321-3.541,0.645-5.303,0.972l-0.78,0.144l-1.424,0.266
	c-0.693,0.129-1.387,0.259-2.078,0.389c-0.626,0.118-1.25,0.235-1.876,0.354l-1.228,0.233c-0.719,0.137-1.438,0.274-2.156,0.412
	l-1.375,0.264c-0.667,0.129-1.334,0.258-1.999,0.386l-1.141,0.222c-0.764,0.149-1.528,0.298-2.29,0.448l-0.664,0.131
	c-2.447,0.481-4.881,0.968-7.307,1.459c-0.579,0.118-1.159,0.234-1.738,0.352c-0.593,0.121-1.184,0.243-1.776,0.364l-1.407,0.289
	c-0.703,0.145-1.405,0.29-2.107,0.436l-1.048,0.218c-0.74,0.154-1.479,0.309-2.217,0.464l-1.069,0.225
	c-0.697,0.147-1.395,0.294-2.091,0.442l-1.244,0.266c-2.401,0.513-4.791,1.03-7.17,1.551l-1.077,0.236
	c-0.626,0.137-1.249,0.276-1.873,0.414l-1.336,0.296c-0.639,0.142-1.277,0.285-1.913,0.428l-1.324,0.297
	c-0.582,0.13-1.163,0.262-1.743,0.394l-1.49,0.339c-0.622,0.142-1.246,0.284-1.867,0.427l-1.001,0.23
	c-0.72,0.166-1.441,0.331-2.159,0.498l-0.195,0.046c-1.527,0.355-3.048,0.711-4.566,1.069l-1.348,0.319
	c-0.548,0.13-1.094,0.26-1.641,0.391l-1.374,0.329c-0.585,0.14-1.166,0.28-1.748,0.421c-0.506,0.122-1.01,0.244-1.514,0.367
	c-0.549,0.133-1.097,0.267-1.645,0.401l-1.336,0.327c-0.625,0.153-1.249,0.307-1.872,0.461l-1.035,0.257
	c-0.677,0.168-1.353,0.335-2.027,0.504l-0.069,0.017h0.002c59.565-5.002,122.227-7.672,186.902-7.672
	c393.546,0,712.578,98.837,712.578,220.759c0,69.464-103.559,131.434-265.458,171.902c1.237-0.104,2.474-0.209,3.709-0.315
	c0.51-0.044,1.019-0.089,1.529-0.133c0.752-0.065,1.504-0.13,2.255-0.196c0.655-0.057,1.312-0.116,1.968-0.174
	c0.649-0.058,1.299-0.116,1.949-0.174c0.682-0.061,1.365-0.123,2.047-0.185c0.581-0.053,1.162-0.106,1.743-0.159
	c0.677-0.062,1.353-0.124,2.029-0.186c0.683-0.063,1.363-0.127,2.043-0.19c0.62-0.058,1.241-0.116,1.861-0.175
	c1.21-0.114,2.419-0.229,3.626-0.345c0.754-0.073,1.506-0.146,2.259-0.22l1.304-0.127c0.833-0.082,1.664-0.165,2.496-0.247
	l1.434-0.142c0.692-0.069,1.383-0.139,2.074-0.209c0.654-0.066,1.307-0.133,1.961-0.2c0.641-0.065,1.284-0.131,1.925-0.197
	c0.532-0.055,1.065-0.11,1.596-0.166c2.622-0.273,5.237-0.55,7.845-0.831c0.528-0.057,1.055-0.113,1.583-0.171
	c0.759-0.083,1.516-0.166,2.274-0.249l1.358-0.15c0.771-0.085,1.543-0.171,2.312-0.258c0.52-0.058,1.041-0.116,1.562-0.175
	c0.687-0.078,1.374-0.155,2.062-0.233c0.712-0.081,1.422-0.163,2.132-0.244c0.514-0.059,1.026-0.117,1.538-0.177
	c0.63-0.073,1.259-0.146,1.886-0.22c1.427-0.167,2.851-0.335,4.274-0.504l0.986-0.118c0.692-0.083,1.383-0.166,2.075-0.249
	c0.648-0.078,1.293-0.157,1.938-0.235c0.532-0.065,1.062-0.13,1.593-0.195c0.695-0.085,1.39-0.171,2.084-0.257
	c0.629-0.077,1.26-0.156,1.888-0.234l1.402-0.176c2.421-0.304,4.834-0.612,7.242-0.924c0.713-0.092,1.426-0.184,2.137-0.277
	c0.606-0.079,1.209-0.159,1.816-0.239c0.59-0.078,1.183-0.156,1.773-0.235c0.659-0.088,1.319-0.175,1.976-0.263
	c0.57-0.076,1.138-0.153,1.708-0.23c0.645-0.086,1.291-0.174,1.934-0.262c0.543-0.074,1.084-0.148,1.626-0.222
	c0.682-0.094,1.364-0.186,2.045-0.281c0.598-0.082,1.198-0.166,1.795-0.249c1.117-0.155,2.231-0.312,3.343-0.469
	c0.583-0.082,1.166-0.164,1.748-0.247c0.658-0.094,1.316-0.188,1.974-0.282c0.558-0.08,1.115-0.16,1.673-0.24
	c0.63-0.091,1.261-0.182,1.891-0.274c0.558-0.081,1.117-0.163,1.676-0.244c0.674-0.099,1.346-0.197,2.019-0.296l1.446-0.214
	c0.678-0.1,1.356-0.201,2.034-0.302c0.637-0.095,1.274-0.192,1.91-0.288c1.199-0.181,2.395-0.362,3.59-0.545l1.272-0.194
	c0.738-0.113,1.474-0.227,2.21-0.342l1.347-0.209c0.651-0.102,1.303-0.204,1.955-0.306c0.544-0.085,1.089-0.171,1.633-0.257
	c0.659-0.104,1.319-0.208,1.977-0.313l1.459-0.233c0.66-0.106,1.321-0.211,1.981-0.318c0.589-0.095,1.176-0.191,1.763-0.286
	c1.199-0.195,2.396-0.391,3.591-0.587l1.317-0.217c0.61-0.101,1.218-0.202,1.826-0.304c0.596-0.099,1.194-0.199,1.789-0.299
	c0.54-0.09,1.079-0.181,1.619-0.272c0.64-0.109,1.28-0.217,1.919-0.326c0.565-0.096,1.13-0.192,1.695-0.289
	c0.561-0.096,1.121-0.192,1.681-0.289c0.572-0.098,1.144-0.196,1.713-0.296c0.928-0.161,1.854-0.322,2.778-0.484l0.624-0.109
	c1.093-0.192,2.185-0.385,3.275-0.579c0.582-0.104,1.162-0.208,1.744-0.312c0.575-0.103,1.149-0.205,1.722-0.308
	c0.558-0.1,1.115-0.202,1.672-0.302c0.591-0.108,1.182-0.215,1.772-0.323c0.548-0.099,1.096-0.2,1.643-0.3
	c0.572-0.105,1.144-0.211,1.715-0.317c0.621-0.114,1.242-0.229,1.862-0.345l0.873-0.163c1.297-0.241,2.592-0.485,3.883-0.73
	c0.561-0.107,1.123-0.213,1.682-0.319l1.453-0.278c0.637-0.123,1.273-0.244,1.909-0.367c0.558-0.108,1.115-0.216,1.672-0.324
	c0.518-0.1,1.034-0.201,1.551-0.302c0.625-0.122,1.249-0.244,1.874-0.367l1.41-0.278c0.644-0.128,1.289-0.255,1.933-0.383
	l1.127-0.225c1.381-0.276,2.758-0.553,4.132-0.832l0.983-0.199c0.594-0.121,1.187-0.243,1.78-0.365
	c0.524-0.107,1.047-0.215,1.57-0.322c0.548-0.113,1.094-0.227,1.641-0.34c0.544-0.113,1.086-0.225,1.628-0.339
	c0.543-0.113,1.087-0.226,1.628-0.34c0.614-0.129,1.228-0.258,1.84-0.388l1.394-0.295c0.76-0.161,1.517-0.323,2.273-0.485
	l0.962-0.205c1.04-0.223,2.078-0.448,3.114-0.673l1.478-0.323c0.585-0.128,1.169-0.255,1.752-0.384l1.5-0.331
	c0.604-0.133,1.205-0.267,1.807-0.401l1.406-0.313c0.588-0.132,1.175-0.263,1.763-0.396c0.503-0.113,1.005-0.226,1.505-0.34
	c0.784-0.177,1.564-0.355,2.345-0.533l0.715-0.163c1.059-0.243,2.117-0.486,3.173-0.731l1.06-0.246
	c0.691-0.161,1.381-0.322,2.071-0.483l1.339-0.315c0.611-0.144,1.222-0.288,1.832-0.432c0.501-0.119,1.003-0.238,1.506-0.358
	c0.504-0.12,1.01-0.241,1.514-0.361c0.531-0.128,1.063-0.255,1.594-0.383c0.524-0.127,1.045-0.253,1.567-0.379
	c0.513-0.124,1.027-0.248,1.538-0.373c0.606-0.148,1.213-0.297,1.818-0.446c0.826-0.203,1.649-0.406,2.472-0.609
	c0.582-0.144,1.165-0.288,1.744-0.433l1.31-0.327c0.572-0.143,1.144-0.286,1.715-0.431l1.432-0.362
	c0.566-0.144,1.131-0.287,1.695-0.431l1.369-0.349c0.629-0.161,1.255-0.322,1.88-0.484l1.125-0.29
	c0.971-0.252,1.938-0.503,2.905-0.756l1.34-0.353c0.543-0.143,1.087-0.286,1.63-0.429l1.337-0.355
	c0.619-0.164,1.235-0.328,1.851-0.494l1.083-0.291c0.667-0.178,1.332-0.358,1.996-0.538l1.031-0.28
	c0.659-0.18,1.316-0.359,1.975-0.539l1.121-0.307c0.654-0.18,1.307-0.361,1.958-0.542c0.648-0.18,1.294-0.36,1.94-0.54
	c0.64-0.179,1.279-0.358,1.918-0.537l1.017-0.287c0.609-0.172,1.217-0.344,1.823-0.516l1.333-0.38
	c0.522-0.15,1.045-0.299,1.565-0.449l1.355-0.39c0.62-0.18,1.239-0.359,1.858-0.539l0.907-0.264c0.956-0.279,1.909-0.559,2.86-0.84
	l0.824-0.244c0.663-0.196,1.324-0.393,1.983-0.589l1.189-0.357c0.579-0.174,1.158-0.347,1.734-0.521l1.168-0.354
	c0.523-0.158,1.045-0.317,1.566-0.477l1.353-0.413c0.582-0.179,1.163-0.358,1.743-0.537l0.943-0.291
	c0.711-0.22,1.42-0.441,2.127-0.663c0.503-0.157,1.005-0.315,1.505-0.472c0.658-0.207,1.315-0.414,1.972-0.622l0.793-0.253
	c0.659-0.209,1.317-0.419,1.974-0.63L1699.43,829.312z"/>
<polygon style="fill:#FDD79D;" points="1032.945,561.228 1043.021,569.236 1070.716,561.385 1059.437,553.718 "/>
<polygon style="fill:#FDD79D;" points="987.196,815.573 997.271,823.582 1024.967,815.731 1013.687,808.064 "/>
<polygon style="fill:#FDD79D;" points="1396.241,791.237 1406.317,799.245 1434.013,791.394 1422.733,783.727 "/>
<polygon style="fill:#FDD79D;" points="1257.708,736.947 1267.784,744.955 1295.48,737.104 1284.2,729.437 "/>
<polygon style="fill:#FDD79D;" points="762.385,633.891 752.309,641.899 724.613,634.048 735.893,626.381 "/>
<polygon style="fill:#FDD79D;" points="1455.048,710.645 1444.972,718.654 1417.277,710.803 1428.556,703.136 "/>
<polygon style="fill:#FDD79D;" points="1229.464,819.225 1219.388,827.233 1191.693,819.382 1202.973,811.715 "/>
<polygon style="fill:#FDD79D;" points="850.912,583.529 840.837,591.537 813.142,583.686 824.421,576.019 "/>
<polygon style="fill:#FDD79D;" points="1187.768,635.62 1177.692,643.628 1149.997,635.778 1161.276,628.111 "/>
<polygon style="fill:#FDD79D;" points="796.507,742.328 786.431,750.336 758.736,742.485 770.015,734.818 "/>
<polygon style="fill:#FDD79D;" points="1353.695,646.519 1343.619,654.527 1315.923,646.676 1327.204,639.009 "/>
<polygon style="fill:#FDD79D;" points="1448.989,649.122 1459.065,657.13 1486.761,649.279 1475.481,641.612 "/>
<polygon style="fill:#FDD79D;" points="941.661,635.081 951.737,643.09 979.432,635.239 968.153,627.572 "/>
<polygon style="fill:#FDD79D;" points="951.159,728.464 941.083,736.473 913.388,728.622 924.668,720.954 "/>
<polygon style="fill:#FDD79D;" points="1161.091,743.732 1151.015,751.74 1123.32,743.889 1134.6,736.222 "/>
<polygon style="fill:#FDD79D;" points="1448.989,584.512 1438.914,592.52 1411.218,584.669 1422.498,577.003 "/>
<polygon style="fill:#FDD79D;" points="1263.298,576.504 1253.222,584.512 1225.526,576.661 1236.806,568.994 "/>
</svg>
