<?xml version="1.0" encoding="UTF-8" standalone="no"?>
<!-- Created with Inkscape (http://www.inkscape.org/) -->

<svg
   height="1000"
   width="1000"
   sodipodi:docname="Typography_Canvas.svg"
   version="1.1"
   id="svg1"
   xml:space="preserve"
   inkscape:export-filename="fez.svg"
   inkscape:export-xdpi="96"
   inkscape:export-ydpi="96"
   xmlns:inkscape="http://www.inkscape.org/namespaces/inkscape"
   xmlns:sodipodi="http://sodipodi.sourceforge.net/DTD/sodipodi-0.dtd"
   xmlns="http://www.w3.org/2000/svg"
   xmlns:svg="http://www.w3.org/2000/svg"
   xmlns:rdf="http://www.w3.org/1999/02/22-rdf-syntax-ns#"
   xmlns:cc="http://creativecommons.org/ns#"
   xmlns:dc="http://purl.org/dc/elements/1.1/"><sodipodi:namedview
     id="base"
     pagecolor="#ffffff"
     bordercolor="#000000"
     borderopacity="0.3"
     inkscape:pageopacity="0.0"
     inkscape:pageshadow="2"
     inkscape:zoom="0.5"
     inkscape:cx="500"
     inkscape:cy="500"
     inkscape:document-units="px"
     inkscape:current-layer="layer1"
     showgrid="false"
     showguides="true"
     inkscape:window-width="1280"
     inkscape:window-height="737"
     inkscape:window-x="0"
     inkscape:window-y="0"
     inkscape:window-maximized="1"
     showborder="true"
     inkscape:showpageshadow="false"
     inkscape:pagecheckerboard="0"
     inkscape:deskcolor="#505050"><inkscape:page
       x="0"
       y="0"
       width="1000"
       height="1000"
       id="page2"
       margin="0"
       bleed="0" /></sodipodi:namedview><defs
     id="defs4"><linearGradient
       id="swatch4"
       inkscape:swatch="solid"><stop
         style="stop-color:#ffffff;stop-opacity:1;"
         offset="0"
         id="stop4" /></linearGradient></defs><metadata
     id="metadata7"><rdf:RDF><cc:Work
         rdf:about=""><dc:format>image/svg+xml</dc:format><dc:type
           rdf:resource="http://purl.org/dc/dcmitype/StillImage" /><dc:title /></cc:Work></rdf:RDF></metadata><g
     id="g324054_00000165231525695451605300000008634437649355291265_"
     transform="matrix(0.37499091,0,0,0.39929028,-140.68471,-84.015389)"
     inkscape:label="newsboy">
		<path
   id="path318824_00000181769239205248145620000015858090534066575802_"
   style="fill:#28120e"
   d="m 1307.207,623.582 c 0,0 -100.159,60.095 -104.165,100.158 -4.006,40.063 68.107,68.107 228.36,64.101 160.253,-4.006 368.582,-72.114 428.676,-140.221 -248.391,-32.051 -552.871,-24.038 -552.871,-24.038 z" />
		<path
   id="path319543_00000049932916823367525290000007895739361271435140_"
   style="fill:#28120e"
   d="m 1273.013,599.445 v 53.825 c 0,0 118.982,33.995 325.783,25.496 206.802,-8.499 362.611,-39.66 422.102,-45.326 59.491,-5.665 84.987,-11.331 84.987,-11.331 l 14.164,-65.157 z" />
		<path
   id="path318709_00000039848791088387276330000012722108822140718495_"
   style="fill:#57261d"
   d="m 1241.245,613.625 c 0,0 -64.101,-56.089 40.063,-152.24 104.164,-96.152 300.474,-208.329 400.632,-228.361 100.158,-20.031 192.303,-4.006 260.411,32.051 68.107,36.057 120.189,40.064 192.303,96.152 72.114,56.088 60.094,192.303 0,224.354 -60.094,32.051 -709.118,100.158 -893.409,28.044 z" />
		<path
   id="path319658_00000041253119154995486330000009733879857966304393_"
   style="fill:#b14f3c"
   d="m 1802.956,225.721 c -15.261,11.368 -32.031,20.982 -49.573,29.625 -7.672,-5.629 -15.309,-11.074 -22.852,-16.235 -5.725,-3.917 -11.492,-7.504 -17.242,-11.211 -7.467,0.959 -14.983,2.095 -22.555,3.457 10.488,6.419 20.905,13.094 31.283,20.195 5.241,3.586 10.534,7.331 15.847,11.154 -2.985,1.368 -5.976,2.722 -8.984,4.059 -46.722,20.765 -94.176,45.062 -141.153,62.145 -5.151,1.873 -10.538,3.787 -15.79,5.668 -25.42,-8.897 -51.18,-16.35 -77.052,-22.53 -6.533,3.642 -13.082,7.371 -19.626,11.162 24.591,5.296 49.15,11.818 73.472,19.701 -47.387,17.053 -96.817,35.947 -139.635,63.696 -16.428,-3.644 -32.756,-6.586 -48.953,-8.918 -6.021,4.362 -11.903,8.743 -17.704,13.125 16.333,1.909 32.805,4.318 49.498,7.681 -30.425,22.569 -56.518,50.577 -74.693,86.927 -5.136,10.272 -8.719,25.569 -11.245,43.715 -27.831,0.605 -55.613,1.783 -83.231,3.308 -0.858,5.402 -1.126,10.463 -0.965,15.188 27.397,-1.523 54.906,-2.699 82.423,-3.316 -1.647,17.189 -2.253,35.84 -1.394,53.821 0.195,4.092 0.545,8.086 0.891,12.078 4.983,0.907 10.119,1.763 15.361,2.582 -0.516,-4.997 -0.905,-10.146 -1.155,-15.377 -0.847,-17.751 -0.221,-36.44 1.477,-53.384 39.506,-0.573 78.978,0.116 118.103,2.747 -6.734,17.561 -10.576,36.06 -10.576,55.339 0,6.303 0.536,14.232 1.147,21.078 5.026,0.253 10.102,0.483 15.221,0.693 -0.053,-0.553 -0.105,-0.892 -0.157,-1.469 -0.605,-6.659 -1.122,-14.714 -1.122,-20.302 0,-18.736 4.075,-36.858 11.261,-54.152 47.777,3.876 94.968,10.768 140.971,21.978 -6.887,16.986 -12.032,35.369 -15.419,55.108 5.114,-0.093 10.213,-0.178 15.352,-0.297 3.332,-18.325 8.261,-35.35 14.751,-51.091 40.601,10.774 80.214,25.043 118.441,43.649 -0.155,0.41 -0.399,1.337 -0.561,1.79 10.834,-0.655 21.598,-1.353 32.322,-2.087 -4.041,-2.208 -8.014,-4.634 -12.086,-6.74 7.679,-15.281 17.455,-28.239 28.989,-40.96 20.667,13.778 40.435,27.736 59.002,41.661 0.061,0.046 0.128,0.086 0.19,0.132 7.778,-0.678 15.413,-1.378 23.041,-2.087 -4.785,-3.344 -9.576,-6.679 -14.156,-10.114 -18.147,-13.611 -37.39,-27.258 -57.492,-40.737 1.489,-1.52 2.953,-3.028 4.488,-4.562 21.067,-21.066 43.289,-39.841 66.641,-56.667 25.947,22.822 49.575,49.976 69.917,79.544 -10.476,8.932 -20.149,18.501 -29.031,28.585 8.015,-0.83 15.847,-1.677 23.611,-2.533 4.536,-4.441 9.197,-8.805 14.099,-13.01 2.256,3.522 4.398,7.106 6.559,10.684 5.606,-0.653 11.084,-1.309 16.524,-1.972 -3.624,-6.198 -7.353,-12.346 -11.253,-18.389 15.352,-11.974 32.044,-22.898 49.424,-32.784 6.146,14.555 11.355,29.265 15.741,44.053 5.169,-0.741 10.215,-1.477 15.13,-2.22 -4.805,-16.55 -10.617,-32.963 -17.514,-49.143 21.107,-11.166 42.941,-20.853 64.414,-29.055 9.313,21.533 17.811,43.29 25.722,65.123 5.418,-1.229 10.419,-2.439 14.751,-3.621 -8.07,-22.365 -16.776,-44.653 -26.3,-66.732 13.067,-4.641 25.908,-8.742 38.246,-12.267 1.447,-0.414 3.165,-0.814 5.098,-1.204 6.899,19.594 13.537,39.284 20.162,58.977 4.003,-4.363 7.658,-9.268 10.939,-14.651 -5.274,-15.575 -10.478,-31.169 -15.93,-46.693 9.666,-1.233 21.938,-2.25 33.758,-3.299 0.858,-5.075 1.521,-10.242 1.939,-15.477 -14.515,1.213 -28.887,2.437 -40.886,4.116 -10.227,-28.738 -20.83,-57.357 -31.901,-85.805 17.566,-4.095 35.178,-8.749 52.163,-15.237 -2.654,-4.463 -5.585,-8.746 -8.77,-12.836 -15.62,5.635 -32.17,9.796 -49.02,13.694 -8.04,-20.309 -16.332,-40.53 -24.931,-60.627 2.773,-1.214 5.443,-2.522 8.176,-3.778 -11.603,-6.594 -22.842,-12.177 -33.89,-17.134 1.909,4.297 3.919,8.551 5.8,12.861 -13.167,5.297 -26.463,10.057 -39.029,13.983 -9.292,2.904 -18.849,5.792 -28.561,8.678 -15.758,-23.012 -32.518,-45.295 -50.306,-66.658 4.429,-3.3 8.624,-6.895 12.935,-10.345 -4.339,-2.113 -8.725,-4.334 -13.191,-6.698 -0.531,-0.281 -1.076,-0.547 -1.609,-0.825 -2.674,2.074 -5.215,4.301 -7.936,6.319 -5.075,-5.876 -10.274,-11.635 -15.509,-17.358 -10.229,-4.328 -20.883,-8.237 -31.927,-11.673 12.086,12.22 23.776,24.86 35.07,37.891 -25.666,17.825 -53.146,33.353 -81.639,46.891 -23.697,-22.18 -47.949,-42.566 -71.904,-60.85 20.329,-10.393 39.905,-22.426 57.36,-37.437 -6.998,-0.96 -14.111,-1.72 -21.302,-2.314 z m -51.214,47.18 c 23.964,17.984 48.339,38.214 72.201,60.264 -3.316,1.481 -6.636,2.95 -9.974,4.381 -42.122,18.052 -87.928,29.636 -133.043,43.665 -28.23,-14.309 -57.297,-27.26 -86.902,-38.551 47.826,-17.503 95.172,-41.746 140.996,-62.112 5.577,-2.478 11.163,-5.023 16.722,-7.647 z m 178.54,18.084 c 16.678,19.978 32.439,40.805 47.328,62.293 -28.021,8.222 -57.203,16.628 -86.696,25.904 -13.116,-14.464 -26.661,-28.385 -40.448,-41.744 27.738,-13.462 54.596,-28.833 79.816,-46.453 z m 136.219,49.019 c 8.252,19.286 16.233,38.691 23.974,58.194 -16.498,3.754 -33.094,7.62 -49.201,12.745 -2.589,0.824 -5.166,1.656 -7.738,2.5 -10.071,-17.488 -20.661,-34.686 -31.778,-51.519 8.198,-2.454 16.315,-4.916 24.238,-7.392 13.071,-4.085 26.845,-9.018 40.505,-14.528 z m -230.678,4.339 c 13.354,12.783 26.501,26.087 39.244,39.912 -38.191,12.432 -76.353,26.512 -112.097,43.773 -20.285,-12.933 -41.268,-25.235 -62.805,-36.777 39.997,-11.998 80.911,-23.193 119.728,-39.83 5.335,-2.286 10.642,-4.661 15.93,-7.078 z m -264.156,6.386 c 30.026,10.723 59.595,23.24 88.371,37.198 -17.997,6.028 -35.77,12.668 -53.037,20.517 -22.085,10.039 -45.303,23.088 -67.483,38.707 -36.307,-14.25 -72.998,-26.34 -109.407,-35.531 43.587,-25.724 93.55,-43.666 141.556,-60.891 z m 414.878,15.708 c 11.326,16.96 22.13,34.293 32.38,51.956 -24.917,8.668 -49.042,18.362 -72.341,29.286 -1.439,-1.995 -2.88,-3.983 -4.339,-5.964 -12.698,-17.234 -26.211,-33.958 -40.284,-50.1 28.674,-8.903 57.156,-17.093 84.584,-25.178 z m -100.35,30.144 c 15.405,17.385 30.149,35.462 43.888,54.11 0.898,1.218 1.776,2.449 2.665,3.671 -25.759,12.809 -50.473,27.216 -74.107,43.501 -25.135,-20.986 -52.213,-41.19 -80.823,-60.182 34.489,-15.996 71.36,-29.24 108.377,-41.1 z m -206.795,1.023 c 23.224,11.939 45.856,24.784 67.697,38.386 -33.852,17.663 -65.153,38.683 -91.564,64.29 -32.275,-16.839 -65.51,-32.48 -99.186,-46.355 18.885,-12.605 38.359,-23.327 56.915,-31.761 21.163,-9.62 43.412,-17.396 66.138,-24.56 z m 416.701,14.956 c 11,28.193 21.538,56.572 31.712,85.096 -1.458,0.338 -2.872,0.686 -4.166,1.056 -12.933,3.695 -26.427,7.977 -40.185,12.836 -12.842,-28.714 -26.945,-57.028 -42.321,-84.675 1.571,-0.509 3.134,-1.024 4.711,-1.526 16.014,-5.095 33.003,-8.902 50.249,-12.787 z M 1412.2,422.914 c 37.322,8.685 75.19,20.582 112.799,34.962 -13.454,10.424 -26.324,21.799 -38.073,34.072 -17.361,18.135 -32.337,38.273 -42.981,60.041 -40.7,-2.918 -81.706,-3.707 -122.656,-3.143 2.462,-16.281 6.035,-29.824 9.454,-36.662 19.019,-38.04 47.716,-66.525 81.457,-89.27 z m 614.323,8.835 c 15.529,27.72 29.767,56.146 42.717,85.005 -21.474,8.136 -43.344,17.719 -64.587,28.816 -13.633,-29.354 -30.359,-57.922 -49.243,-85.351 22.856,-10.597 46.561,-20.024 71.113,-28.47 z m -264.667,13.629 c 29.79,19.326 57.957,39.988 84.007,61.526 -22.883,16.716 -44.712,35.307 -65.445,56.04 -2.241,2.24 -4.426,4.479 -6.6,6.724 -32.905,-21.544 -67.992,-42.512 -104.433,-62.071 24.708,-23.089 53.899,-42.283 85.814,-58.837 2.204,-1.143 4.428,-2.265 6.657,-3.382 z m -220.374,18.974 c 34.863,14.008 69.383,30.012 102.915,47.328 -17.484,18.9 -32.386,40.154 -43.897,64.183 -45.885,-11.367 -92.833,-18.5 -140.27,-22.588 9.599,-18.105 22.508,-35.176 37.578,-50.917 13.227,-13.817 28.099,-26.542 43.674,-38.006 z m 400.118,2.459 c 19.213,27.707 36.097,56.504 49.705,85.97 -18.146,10.184 -35.644,21.521 -51.808,34.088 -20.131,-29.093 -43.418,-55.894 -69.034,-78.834 22.677,-15.393 46.397,-29.044 71.137,-41.224 z m -283.567,51.997 c 36.725,19.51 72.099,40.519 105.283,62.112 -11.516,12.903 -21.691,26.536 -29.781,42.618 -38.282,-18.615 -77.85,-32.961 -118.309,-43.856 11.215,-22.851 25.721,-42.972 42.807,-60.874 z" />
		
			<path
   id="path320715_00000096762649953866390150000011679669466694336909_"
   style="opacity:0.25;fill:#ffffff;enable-background:new"
   d="m 1680.951,253.832 c 0,0 -257.794,107.65 -283.29,150.144 -25.496,42.493 339.948,-67.99 393.773,-99.151 53.824,-31.163 -59.491,-65.158 -110.483,-50.993 z" />
		<path
   id="path320962_00000044148157463113691910000009104842367692051612_"
   style="opacity:0.25;enable-background:new"
   d="m 2159.376,388.018 c -14.991,40.164 -41.603,83.19 -88.824,109.424 -108.171,60.095 -112.173,4.003 -244.381,-4.009 -132.208,-8.012 -296.471,96.151 -472.75,108.17 -68.042,4.639 -107.362,-6.862 -130.543,-23.627 4.164,23.204 18.364,35.647 18.364,35.647 184.291,72.114 833.315,4.01 893.41,-28.041 51.952,-27.709 67.929,-133.229 24.724,-197.564 z" />
		
			<path
   id="path321625_00000047019054627582360670000008735725837693997996_"
   style="opacity:0.25;fill:#ffffff;enable-background:new"
   d="m 1279.305,665.707 c 0,0 -72.114,30.048 -60.095,68.107 8.013,22.035 42.066,24.038 42.066,24.038 0,0 62.098,-62.098 136.215,-74.117 -94.148,-2.002 -118.186,-18.028 -118.186,-18.028 z" />
	</g></svg>
